<svg id="Layer_1" data-name="Layer 1" xmlns="http://www.w3.org/2000/svg" viewBox="0 0 127.56 141.73"><defs><style>.cls-1{fill:#415364;}.cls-2,.cls-3{fill:#ea0029;}.cls-3{fill-rule:evenodd;}.cls-4{fill:#a2a9ad;}</style></defs><title>imagotipo vertical-SAE</title><path class="cls-1" d="M32.6,117.75a6.14,6.14,0,0,0-2.89.69l.46,1a4.47,4.47,0,0,1,2.34-.66,1.66,1.66,0,0,1,1.87,1.91v1a4.74,4.74,0,0,0-2.15-.49c-1.7,0-3.29.82-3.29,2.76a2.52,2.52,0,0,0,2.75,2.75,3.53,3.53,0,0,0,2.69-1.23v1.05h1.23v-6C35.61,118.54,34.45,117.75,32.6,117.75Zm1.78,6.68a3,3,0,0,1-2.47,1.29,1.62,1.62,0,0,1-1.76-1.84c0-1.08.76-1.69,2-1.69a4.15,4.15,0,0,1,2.21.5Z"/><path class="cls-1" d="M39.89,121.54c-1.46-.66-1.9-1-1.9-1.67s.52-1.07,1.43-1.07a3.15,3.15,0,0,1,2.15.77l.69-.9a4.27,4.27,0,0,0-2.76-.92c-1.56,0-2.69.89-2.69,2.2s.72,1.9,2.44,2.64c1.53.65,2,1,2,1.75s-.56,1.33-1.74,1.33a3.5,3.5,0,0,1-2.34-1l-.73.9a4.82,4.82,0,0,0,3,1.1c1.49,0,2.95-.74,2.95-2.42S41.52,122.28,39.89,121.54Z"/><path class="cls-1" d="M47.8,117.75A3.44,3.44,0,0,0,45.21,119v-1H44v11.92l1.23-.94v-3.34a3.06,3.06,0,0,0,2.43,1.15c1.8,0,3.24-1.57,3.24-4.62S49.52,117.75,47.8,117.75Zm-.26,7.91a2.81,2.81,0,0,1-2.33-1.3v-4.3a2.93,2.93,0,0,1,2.28-1.24c1.36,0,2.18,1.13,2.18,3.29C49.67,124.43,49,125.66,47.54,125.66Z"/><polygon class="cls-1" points="60.45 126.54 61.67 126.54 61.67 114.31 60.45 115.27 60.45 126.54"/><path class="cls-1" d="M55.43,117.75c-2,0-3.56,1.71-3.56,4.44,0,3.38,1.92,4.53,3.49,4.53a5,5,0,0,0,3.08-1l-.57-.88a3.88,3.88,0,0,1-2.38.82H55.4s-2.33.11-2.33-3.41c0-3.34,1.9-3.43,2.27-3.42h.07c1.51,0,2.23,1.16,2.33,2.83H54.63l-1.36,1h5.57a3.9,3.9,0,0,0,0-.67C58.89,119.52,57.67,117.75,55.43,117.75Z"/><path class="cls-2" d="M71.08,119.31c-2-.46-2.53-.71-2.53-1.5,0-.56.45-1.13,1.8-1.13A3.84,3.84,0,0,1,73.2,118L75,116.21a6,6,0,0,0-4.57-2c-2.47,0-4.48,1.4-4.48,3.68,0,2.47,1.61,3.2,3.92,3.74s2.8.9,2.8,1.71-.7,1.36-2.19,1.36a4.05,4.05,0,0,1-3.21-1.44l-1.81,1.62a5.84,5.84,0,0,0,4.88,2.27c3.42,0,4.93-1.61,4.93-4C75.28,120.46,73.07,119.78,71.08,119.31Z"/><path class="cls-2" d="M85.19,127H88l-4.77-12.55H80.74L75.94,127h2.69l1-2.8H84.2Zm-4.72-5.18.81-2.28c.25-.74.5-1.49.63-2,.12.46.38,1.21.63,2l.8,2.28Z"/><polygon class="cls-2" points="98.63 124.53 92.16 124.53 92.16 121.5 95.76 121.5 95.76 119.06 92.16 119.06 92.16 116.89 98.36 116.89 98.36 114.44 89.65 114.44 89.65 126.98 98.63 126.98 98.63 124.53"/><path class="cls-2" d="M75.29,98.74a47.57,47.57,0,1,1,34.65-57.67A47.62,47.62,0,0,1,75.29,98.74ZM54.08,13.68a40.1,40.1,0,1,0,48.6,29.2A40.13,40.13,0,0,0,54.08,13.68Z"/><path class="cls-3" d="M85.74,40.82l-7.42-8.27-7-7.78a1.11,1.11,0,0,0-1.14-.34,1.13,1.13,0,0,0-.82.86L68.16,31c-13.93-3.29-28.71,6.27-26.25,21.2,4.9-7,14.38-9.23,23.37-7.76l-1.21,5.68a1.11,1.11,0,0,0,.39,1.12,1.13,1.13,0,0,0,1.18.16l9.56-4.24,10.16-4.51a1.12,1.12,0,0,0,.65-.8A1.08,1.08,0,0,0,85.74,40.82Z"/><path class="cls-4" d="M54.29,81.65a3,3,0,0,1-.62-.52l-14.41-16a2.7,2.7,0,0,1,.92-4.27l19.71-8.75a2.7,2.7,0,0,1,3.73,3l-.87,4c7.06.76,15.64-.78,20.23-7.34a1.55,1.55,0,0,1,2.8.64A19,19,0,0,1,80,69.9,24.49,24.49,0,0,1,59.2,75.72l-.89,4.18a2.7,2.7,0,0,1-1.94,2A2.74,2.74,0,0,1,54.29,81.65Zm1.7-2.6h0ZM42,63.43l13.48,15,1-4.87a1.57,1.57,0,0,1,.69-1,1.52,1.52,0,0,1,1.19-.2,21.52,21.52,0,0,0,19.48-4.75A15.71,15.71,0,0,0,83,56.53C77.71,61.36,69.52,63.44,60.63,62a1.56,1.56,0,0,1-1-.66,1.54,1.54,0,0,1-.24-1.2l1-4.88ZM41.58,63Z"/></svg>