<svg id="Layer_1" data-name="Layer 1" xmlns="http://www.w3.org/2000/svg" viewBox="0 0 127.56 141.73"><defs><style>.cls-1,.cls-4{fill:#ff8300;}.cls-2{fill:#415364;}.cls-3{fill:#a2a9ad;}.cls-4{fill-rule:evenodd;}</style></defs><title>imagotipo vertical-NOI</title><path class="cls-1" d="M76.58,127,72,120.18c-.31-.46-.72-1.09-.88-1.41,0,.46,0,2,0,2.74V127H68.65V114.48h2.41l4.44,6.63c.31.47.72,1.1.88,1.42,0-.47,0-2,0-2.74v-5.31h2.48V127Z"/><path class="cls-1" d="M86.21,127.23c-3.43,0-5.46-2.66-5.46-6.47s2-6.48,5.46-6.48,5.45,2.65,5.45,6.48S89.63,127.23,86.21,127.23Zm0-10.45c-2,0-2.87,1.73-2.87,4s.84,4,2.87,4,2.87-1.74,2.87-4S88.23,116.78,86.21,116.78Z"/><path class="cls-1" d="M93.77,127V114.48h2.51V127Z"/><path class="cls-2" d="M35.15,117.79a6.14,6.14,0,0,0-2.89.69l.46,1a4.53,4.53,0,0,1,2.35-.65,1.66,1.66,0,0,1,1.87,1.9v1a4.61,4.61,0,0,0-2.15-.5c-1.71,0-3.3.82-3.3,2.76a2.53,2.53,0,0,0,2.76,2.76,3.58,3.58,0,0,0,2.69-1.23v1h1.23v-6C38.17,118.58,37,117.79,35.15,117.79Zm1.79,6.68a3,3,0,0,1-2.48,1.3,1.62,1.62,0,0,1-1.76-1.84c0-1.08.76-1.69,2-1.69a4.22,4.22,0,0,1,2.22.49Z"/><path class="cls-2" d="M42.45,121.58c-1.46-.65-1.9-1-1.9-1.67s.52-1.07,1.42-1.07a3.14,3.14,0,0,1,2.15.77l.69-.9a4.22,4.22,0,0,0-2.75-.92c-1.56,0-2.69.89-2.69,2.2s.72,1.9,2.44,2.64c1.53.66,2,1.05,2,1.76s-.56,1.33-1.74,1.33a3.57,3.57,0,0,1-2.35-1l-.72.9a4.85,4.85,0,0,0,3,1.1c1.5,0,3-.74,3-2.43S44.07,122.32,42.45,121.58Z"/><path class="cls-2" d="M50.36,117.79A3.46,3.46,0,0,0,47.77,119v-1H46.54v11.92l1.23-.93v-3.34a3,3,0,0,0,2.43,1.15c1.8,0,3.24-1.58,3.24-4.63S52.08,117.79,50.36,117.79Zm-.26,7.91a2.8,2.8,0,0,1-2.33-1.29v-4.3a2.9,2.9,0,0,1,2.28-1.25c1.36,0,2.18,1.13,2.18,3.3S51.52,125.7,50.1,125.7Z"/><polygon class="cls-2" points="63.01 115.31 63.01 126.59 64.24 126.59 64.24 114.35 63.01 115.31"/><path class="cls-2" d="M58,117.79c-2.05,0-3.56,1.71-3.56,4.45,0,3.38,1.92,4.53,3.49,4.53a5.14,5.14,0,0,0,3.09-1l-.57-.89a3.82,3.82,0,0,1-2.38.82H58s-2.33.11-2.33-3.42c0-3.33,1.9-3.43,2.27-3.42H58c1.51,0,2.24,1.16,2.33,2.84H57.19l-1.36,1H61.4a3.21,3.21,0,0,0,.05-.67C61.45,119.56,60.24,117.79,58,117.79Z"/><path class="cls-1" d="M63.78,100.21a47.61,47.61,0,1,1,47.6-47.61A47.66,47.66,0,0,1,63.78,100.21ZM83.71,17.79A40.12,40.12,0,1,0,103.9,52.6,39.85,39.85,0,0,0,83.71,17.79"/><path class="cls-3" d="M39.54,71.2A1.57,1.57,0,0,1,38,69.73l-.22-4.18c-.18-3.22,1.49-6,4.81-8,7-4.18,20.08-4.19,27,0,3.32,2,5,4.76,4.81,8l-.23,4.18a1.56,1.56,0,0,1-3.11-.17l.23-4.18c.11-2-1-3.77-3.31-5.15-6-3.62-17.79-3.61-23.81,0-2.3,1.38-3.41,3.11-3.3,5.14l.22,4.18a1.56,1.56,0,0,1-1.47,1.64ZM56.08,52.71a10.71,10.71,0,0,1-1.67-.16l-.12,0a11.23,11.23,0,0,1-7.06-5C45.8,45,45.33,39,45.56,36.61c.46-4.9,4.68-8.19,10.52-8.19S66.14,31.71,66.6,36.6c.22,2.4-.24,8.37-1.67,10.95a11.28,11.28,0,0,1-7.07,5l-.12,0A10.6,10.6,0,0,1,56.08,52.71Zm-1.15-3.23a5.57,5.57,0,0,0,2.3,0,8.11,8.11,0,0,0,5-3.44c.95-1.71,1.5-6.95,1.29-9.14-.37-4-4.23-5.36-7.42-5.36s-7,1.4-7.42,5.36h0C48.45,39.09,49,44.33,50,46A8.09,8.09,0,0,0,54.93,49.48ZM47.11,36.75h0Z"/><path class="cls-4" d="M70.65,41.17c.31-3.36,3.32-5,6.68-5s6.36,1.68,6.67,5c.17,1.75-.23,5.9-1.1,7.47a7.23,7.23,0,0,1-4.5,3.15,5.56,5.56,0,0,1-2.15,0,7.26,7.26,0,0,1-4.5-3.15c-.87-1.57-1.27-5.72-1.1-7.47Z"/><path class="cls-4" d="M76.28,63.26H89.66l.15-2.66c.37-6.88-13.39-8.72-20.64-5.55C72.9,56.87,75.61,59.61,76.28,63.26Z"/></svg>