<svg id="Layer_1" data-name="Layer 1" xmlns="http://www.w3.org/2000/svg" viewBox="0 0 127.56 141.73"><defs><style>.cls-1,.cls-4{fill:#a2a9ae;}.cls-1{fill-rule:evenodd;}.cls-2{fill:#aa182c;}.cls-3{fill:#415364;}</style></defs><title>imagotipo vertical-FACTURE</title><path class="cls-1" d="M69.06,28.86v7a5.7,5.7,0,0,0,5.69,5.68h7.64a1.86,1.86,0,0,1,1.83,1.84c.15-3-4.48-6.19-6.38-8L72.22,30c-3-2.84-2.45-3-5.08-3A1.86,1.86,0,0,1,69.06,28.86Z"/><path class="cls-2" d="M63.78,100.21a47.61,47.61,0,1,1,47.6-47.61A47.66,47.66,0,0,1,63.78,100.21Zm0-87.73A40.12,40.12,0,1,0,103.9,52.6,40.17,40.17,0,0,0,63.78,12.48Z"/><path class="cls-2" d="M77.3,77.91H51.12A6.12,6.12,0,0,1,45,71.82V33.39a6.3,6.3,0,0,1,6.28-6.3H65a1.56,1.56,0,1,1,0,3.12H51.26a3.17,3.17,0,0,0-3.17,3.18V71.82a3,3,0,0,0,3,3H77.3a3,3,0,0,0,3-3V45.67a1.56,1.56,0,1,1,3.11,0V71.82A6.12,6.12,0,0,1,77.3,77.91Z"/><path class="cls-2" d="M46.54,117v2.37h3.79v2.44H46.54v5.29H44V114.5h9V117Z"/><path class="cls-2" d="M61.09,127.05l-1-2.8H55.51l-1,2.8H51.83l4.81-12.55h2.44l4.77,12.55Zm-2.66-7.46c-.25-.74-.5-1.49-.63-2-.12.46-.37,1.21-.62,2l-.81,2.28h2.87Z"/><path class="cls-2" d="M72.28,118.15a2.39,2.39,0,0,0-2.3-1.36c-1.88,0-3,1.65-3,4s1.1,4,3,4a2.61,2.61,0,0,0,2.45-1.59l2.12,1.25a4.79,4.79,0,0,1-4.64,2.84c-3.28,0-5.49-2.52-5.49-6.48s2.3-6.47,5.58-6.47a4.74,4.74,0,0,1,4.59,2.78Z"/><path class="cls-2" d="M81.55,117v10.08H79V117H75.43V114.5h9.72V117Z"/><path class="cls-2" d="M91.93,127.25c-3,0-5.08-2-5.08-5.71v-7h2.51v7c0,2,1,3.28,2.57,3.28s2.58-1.24,2.58-3.25v-7H97v7C97,125.15,95.12,127.25,91.93,127.25Z"/><path class="cls-2" d="M106.81,127.05l-2.24-4.52H102v4.52H99.53V114.5h5.85c2.36,0,4.32,1.3,4.32,4a3.58,3.58,0,0,1-2.41,3.69l2.41,4.88Zm-1.49-10.11H102v3.22h3.28c1.17,0,1.8-.53,1.8-1.63S106.43,116.94,105.32,116.94Z"/><path class="cls-2" d="M111.7,127.05V114.5h8.72V117h-6.21v2.17h3.61v2.44h-3.61v3h6.48v2.46Z"/><path class="cls-3" d="M10.53,117.81a6.2,6.2,0,0,0-2.89.69l.46,1a4.53,4.53,0,0,1,2.35-.66,1.66,1.66,0,0,1,1.87,1.91v1a4.74,4.74,0,0,0-2.15-.49c-1.71,0-3.3.82-3.3,2.76a2.54,2.54,0,0,0,2.76,2.76,3.58,3.58,0,0,0,2.69-1.23v1h1.23v-6C13.55,118.6,12.39,117.81,10.53,117.81Zm1.79,6.68a3,3,0,0,1-2.48,1.29A1.61,1.61,0,0,1,8.09,124c0-1.09.75-1.69,2-1.69a4.22,4.22,0,0,1,2.22.49Z"/><path class="cls-3" d="M17.83,121.6c-1.46-.66-1.9-.95-1.9-1.67s.53-1.07,1.43-1.07a3.11,3.11,0,0,1,2.15.77l.69-.9a4.27,4.27,0,0,0-2.76-.92c-1.56,0-2.69.89-2.69,2.2s.72,1.9,2.44,2.64c1.53.66,2,1,2,1.76s-.56,1.33-1.74,1.33a3.55,3.55,0,0,1-2.35-1l-.72.91a4.86,4.86,0,0,0,3,1.1c1.49,0,2.95-.74,2.95-2.43S19.46,122.34,17.83,121.6Z"/><path class="cls-3" d="M25.74,117.81A3.44,3.44,0,0,0,23.15,119V118H21.92v11.92l1.23-.94v-3.33a3.06,3.06,0,0,0,2.43,1.15c1.8,0,3.25-1.58,3.25-4.63S27.47,117.81,25.74,117.81Zm-.26,7.91a2.83,2.83,0,0,1-2.33-1.3v-4.3a2.93,2.93,0,0,1,2.28-1.24c1.36,0,2.18,1.13,2.18,3.29C27.61,124.49,26.91,125.72,25.48,125.72Z"/><polygon class="cls-3" points="38.39 115.33 38.39 126.61 39.62 126.61 39.62 114.37 38.39 115.33"/><path class="cls-3" d="M33.37,117.81c-2,0-3.56,1.71-3.56,4.45,0,3.38,1.92,4.53,3.5,4.53a5.08,5.08,0,0,0,3.08-1l-.57-.88a3.88,3.88,0,0,1-2.38.82h-.09s-2.34.1-2.34-3.42c0-3.34,1.91-3.43,2.27-3.42h.08c1.51,0,2.23,1.16,2.33,2.83H32.57l-1.35,1h5.57a4.12,4.12,0,0,0,.05-.68C36.84,119.58,35.62,117.81,33.37,117.81Z"/><path class="cls-4" d="M68.23,64.39a1.54,1.54,0,0,1-1.1.45,1.58,1.58,0,0,1-1.1-.45,3.26,3.26,0,0,0-4.62,0,1.58,1.58,0,0,1-1.1.45,1.56,1.56,0,0,1-1.1-2.66,6.4,6.4,0,0,1,9,0,1.56,1.56,0,0,1,0,2.21Z"/><path class="cls-4" d="M71.65,59.79a1.54,1.54,0,0,1-1.1.46,1.51,1.51,0,0,1-1.1-.46,8.14,8.14,0,0,0-11.46,0,1.51,1.51,0,0,1-1.1.46,1.54,1.54,0,0,1-1.1-.46,1.57,1.57,0,0,1,0-2.2,11.25,11.25,0,0,1,15.86,0,1.56,1.56,0,0,1,.45,1.1A1.54,1.54,0,0,1,71.65,59.79Z"/><path class="cls-4" d="M75.06,55.09a1.51,1.51,0,0,1-1.1.46,1.53,1.53,0,0,1-1.1-.46,12.92,12.92,0,0,0-18.28,0,1.55,1.55,0,0,1-2.2,0,1.55,1.55,0,0,1,0-2.2,16,16,0,0,1,22.68,0,1.57,1.57,0,0,1,0,2.2Z"/></svg>