<svg id="Layer_1" data-name="Layer 1" xmlns="http://www.w3.org/2000/svg" viewBox="0 0 127.56 141.73"><defs><style>.cls-1{fill:#ffd100;}.cls-2{fill:#415364;}.cls-3{fill:#a2a9ae;}</style></defs><title>imagotipo vertical-CAJA</title><path class="cls-1" d="M66.62,117.39a2.39,2.39,0,0,0-2.3-1.36c-1.88,0-2.95,1.65-2.95,4s1.09,4,3,4a2.65,2.65,0,0,0,2.46-1.6l2.11,1.26a4.79,4.79,0,0,1-4.64,2.83c-3.28,0-5.49-2.51-5.49-6.47s2.3-6.47,5.58-6.47A4.73,4.73,0,0,1,69,116.31Z"/><path class="cls-1" d="M78.88,126.28l-1-2.8H73.3l-1,2.8H69.63l4.8-12.55h2.44l4.76,12.55Zm-2.66-7.46c-.25-.73-.5-1.48-.63-1.95-.12.47-.37,1.22-.62,1.95l-.81,2.28H77Z"/><path class="cls-1" d="M87,126.48a4.79,4.79,0,0,1-4.8-3.71l2.45-.67c.49,1.28,1.13,1.89,2.35,1.89,1.54,0,2.24-1,2.24-2.87v-7.39h2.51v7.32C91.76,124.33,90.29,126.48,87,126.48Z"/><path class="cls-1" d="M102,126.28l-1-2.8H96.42l-1,2.8H92.75l4.8-12.55H100l4.77,12.55Zm-2.66-7.46c-.25-.73-.5-1.48-.62-1.95-.13.47-.38,1.22-.63,1.95l-.81,2.28h2.87Z"/><path class="cls-2" d="M26,117.05a6,6,0,0,0-2.88.69l.45,1a4.53,4.53,0,0,1,2.35-.66,1.66,1.66,0,0,1,1.87,1.9v1a4.61,4.61,0,0,0-2.15-.49c-1.71,0-3.3.82-3.3,2.75A2.53,2.53,0,0,0,25.06,126a3.58,3.58,0,0,0,2.69-1.23v1H29v-6C29,117.83,27.81,117.05,26,117.05Zm1.79,6.67a3,3,0,0,1-2.48,1.3,1.61,1.61,0,0,1-1.75-1.84c0-1.08.75-1.69,2-1.69a4.2,4.2,0,0,1,2.22.49Z"/><path class="cls-2" d="M33.26,120.83c-1.46-.65-1.9-1-1.9-1.67s.52-1.06,1.43-1.06a3.08,3.08,0,0,1,2.14.77l.69-.9a4.19,4.19,0,0,0-2.75-.92c-1.56,0-2.69.88-2.69,2.19s.72,1.91,2.44,2.65c1.53.65,2,1,2,1.75S34.1,125,32.91,125a3.56,3.56,0,0,1-2.34-1l-.72.9a4.85,4.85,0,0,0,3,1.1c1.5,0,3-.74,3-2.43S34.88,121.57,33.26,120.83Z"/><path class="cls-2" d="M41.17,117.05a3.44,3.44,0,0,0-2.6,1.23v-1H37.34v11.91l1.23-.94v-3.33A3.07,3.07,0,0,0,41,126c1.8,0,3.25-1.58,3.25-4.63S42.89,117.05,41.17,117.05ZM40.9,125a2.83,2.83,0,0,1-2.33-1.29v-4.3a2.93,2.93,0,0,1,2.28-1.25c1.37,0,2.19,1.13,2.19,3.3S42.33,125,40.9,125Z"/><polygon class="cls-2" points="53.81 114.57 53.81 125.84 55.04 125.84 55.04 113.61 53.81 114.57"/><path class="cls-2" d="M48.79,117.05c-2,0-3.56,1.7-3.56,4.44,0,3.38,1.92,4.53,3.5,4.53a5.13,5.13,0,0,0,3.08-1l-.57-.89a3.82,3.82,0,0,1-2.38.82h-.09s-2.34.11-2.34-3.42c0-3.33,1.9-3.43,2.28-3.41h.07c1.51,0,2.23,1.17,2.33,2.84H48l-1.35,1H52.2a3.21,3.21,0,0,0,0-.67C52.25,118.82,51,117.05,48.79,117.05Z"/><path class="cls-1" d="M63.78,100.21a47.61,47.61,0,1,1,47.6-47.61A47.66,47.66,0,0,1,63.78,100.21Zm0-87.73A40.12,40.12,0,1,0,103.9,52.6,40.17,40.17,0,0,0,63.78,12.48Z"/><path class="cls-3" d="M86.43,76.9H41.13a1.48,1.48,0,0,1-1.48-1.48v-11a1.48,1.48,0,0,1,1.48-1.48h45.3a1.48,1.48,0,0,1,1.48,1.48v11A1.48,1.48,0,0,1,86.43,76.9ZM42.61,74H85V65.88H42.61Z"/><path class="cls-1" d="M57.11,60a2.28,2.28,0,1,1,2.28-2.27A2.27,2.27,0,0,1,57.11,60Zm0-6.83a2.27,2.27,0,1,1,2.28-2.27A2.27,2.27,0,0,1,57.11,53.12ZM63.71,60A2.28,2.28,0,1,1,66,57.68,2.28,2.28,0,0,1,63.71,60Zm0-6.83A2.27,2.27,0,1,1,66,50.85,2.28,2.28,0,0,1,63.71,53.12ZM50.81,60a2.28,2.28,0,1,1,2.28-2.27A2.27,2.27,0,0,1,50.81,60Zm0-6.83a2.27,2.27,0,1,1,2.28-2.27A2.27,2.27,0,0,1,50.81,53.12ZM70.36,60a2.28,2.28,0,1,1,2.27-2.27A2.28,2.28,0,0,1,70.36,60Zm0-6.83a2.27,2.27,0,1,1,2.27-2.27A2.28,2.28,0,0,1,70.36,53.12ZM79,57.68a2.09,2.09,0,1,1-4.16,0V50.85a2.09,2.09,0,1,1,4.16,0Z"/><path class="cls-3" d="M85.7,33.12H67.45A1.48,1.48,0,0,1,66,31.64V26.59a1.48,1.48,0,0,1,1.48-1.47H85.7a1.47,1.47,0,0,1,1.48,1.47v5.05A1.48,1.48,0,0,1,85.7,33.12ZM68.93,30.17h15.3v-2.1H68.93Z"/><path class="cls-3" d="M83.3,65.55a1.47,1.47,0,0,1-1.48-1.47V41.89a2.22,2.22,0,0,0-2-2.39H47.74a2.22,2.22,0,0,0-2,2.39V64.08a1.48,1.48,0,0,1-3,0V41.89a5.17,5.17,0,0,1,5-5.34H79.82a5.17,5.17,0,0,1,5,5.34V64.08A1.48,1.48,0,0,1,83.3,65.55Z"/><rect class="cls-1" x="51" y="27.63" width="9.82" height="16.6"/><path class="cls-3" d="M63.65,45.71H48.17a1.48,1.48,0,1,1,0-3H63.65a1.48,1.48,0,1,1,0,3Z"/><rect class="cls-3" x="75.1" y="30.95" width="2.95" height="8.14"/></svg>