<?xml version="1.0" encoding="utf-8"?>
<!-- Generator: Adobe Illustrator 24.1.2, SVG Export Plug-In . SVG Version: 6.00 Build 0)  -->
<svg version="1.1" id="Layer_1" xmlns="http://www.w3.org/2000/svg" xmlns:xlink="http://www.w3.org/1999/xlink" x="0px" y="0px"
	 viewBox="0 0 127.6 141.7" style="enable-background:new 0 0 127.6 141.7;" xml:space="preserve">
<style type="text/css">
	.st0{fill:#FF8300;}
	.st1{fill:#415364;}
	.st2{fill:#A2A9AD;}
	.st3{fill-rule:evenodd;clip-rule:evenodd;fill:#FF8300;}
</style>
<g>
	<g>
		<g>
			<g>
				<g>
					<g>
						<g>
							<g>
								<g>
									<g>
										<path class="st0" d="M76.6,127l-4.6-6.9c-0.3-0.5-0.7-1.1-0.9-1.4c0,0.5,0,2,0,2.7v5.5h-2.5v-12.6h2.4l4.4,6.6
											c0.3,0.5,0.7,1.1,0.9,1.4c0-0.5,0-2,0-2.7v-5.3h2.5V127H76.6z"/>
									</g>
									<g>
										<path class="st0" d="M86.2,127.2c-3.4,0-5.5-2.7-5.5-6.5c0-3.8,2-6.5,5.5-6.5c3.4,0,5.5,2.7,5.5,6.5
											C91.7,124.6,89.6,127.2,86.2,127.2z M86.2,116.8c-2,0-2.9,1.7-2.9,4c0,2.2,0.8,4,2.9,4c2,0,2.9-1.7,2.9-4
											C89.1,118.5,88.2,116.8,86.2,116.8z"/>
									</g>
									<g>
										<path class="st0" d="M93.8,127v-12.6h2.5V127H93.8z"/>
									</g>
								</g>
								<g>
									<g>
										<path class="st1" d="M35.1,117.8c-1.1,0-2.1,0.3-2.9,0.7l0.5,1c0.7-0.4,1.4-0.7,2.3-0.7c1.3,0,1.9,0.6,1.9,1.9v1
											c-0.5-0.3-1.3-0.5-2.1-0.5c-1.7,0-3.3,0.8-3.3,2.8c0,2.1,1.4,2.8,2.8,2.8c1.2,0,2.1-0.6,2.7-1.2v1.1h1.2v-6
											C38.2,118.6,37,117.8,35.1,117.8z M36.9,124.5c-0.5,0.7-1.4,1.3-2.5,1.3c-1.1,0-1.8-0.6-1.8-1.8c0-1.1,0.8-1.7,2-1.7
											c1.1,0,1.7,0.2,2.2,0.5V124.5z"/>
									</g>
									<g>
										<path class="st1" d="M42.5,121.6c-1.5-0.7-1.9-1-1.9-1.7c0-0.6,0.5-1.1,1.4-1.1c0.9,0,1.5,0.2,2.1,0.8l0.7-0.9
											c-0.7-0.5-1.6-0.9-2.8-0.9c-1.6,0-2.7,0.9-2.7,2.2c0,1.4,0.7,1.9,2.4,2.6c1.5,0.7,2,1.1,2,1.8c0,0.8-0.6,1.3-1.7,1.3
											c-0.9,0-1.7-0.3-2.3-1l-0.7,0.9c0.8,0.7,1.9,1.1,3,1.1c1.5,0,3-0.7,3-2.4C45,122.8,44.1,122.3,42.5,121.6z"/>
									</g>
									<g>
										<path class="st1" d="M50.4,117.8c-1.2,0-2,0.6-2.6,1.2v-1h-1.2v11.9l1.2-0.9v-3.3c0.6,0.7,1.3,1.1,2.4,1.1
											c1.8,0,3.2-1.6,3.2-4.6C53.4,119.1,52.1,117.8,50.4,117.8z M50.1,125.7c-1,0-1.9-0.6-2.3-1.3v-4.3
											c0.6-0.8,1.4-1.2,2.3-1.2c1.4,0,2.2,1.1,2.2,3.3C52.2,124.5,51.5,125.7,50.1,125.7z"/>
									</g>
									<g>
										<polygon class="st1" points="63,115.3 63,126.6 64.2,126.6 64.2,114.4 										"/>
									</g>
									<g>
										<path class="st1" d="M58,117.8c-2.1,0-3.6,1.7-3.6,4.4c0,3.4,1.9,4.5,3.5,4.5c1.3,0,2.1-0.3,3.1-1l-0.6-0.9
											c-0.8,0.5-1.4,0.8-2.4,0.8c0,0-0.1,0-0.1,0l0,0c0,0-2.3,0.1-2.3-3.4c0-3.3,1.9-3.4,2.3-3.4c0,0,0,0,0.1,0
											c1.5,0,2.2,1.2,2.3,2.8h-3.1l-1.4,1h5.6c0-0.2,0-0.4,0-0.7C61.5,119.6,60.2,117.8,58,117.8z"/>
									</g>
								</g>
							</g>
						</g>
					</g>
					<g>
						<g>
							<path class="st0" d="M63.8,100.2c-26.2,0-47.6-21.4-47.6-47.6C16.2,26.4,37.5,5,63.8,5c26.2,0,47.6,21.4,47.6,47.6
								C111.4,78.9,90,100.2,63.8,100.2z M83.7,17.8c-5.9-3.4-12.7-5.3-19.9-5.3c-22.1,0-40.1,18-40.1,40.1
								c0,22.1,18,40.1,40.1,40.1s40.1-18,40.1-40.1C103.9,37.7,95.8,24.7,83.7,17.8"/>
						</g>
					</g>
				</g>
				<g>
					<g>
						<path class="st2" d="M39.5,71.2c-0.8,0-1.5-0.6-1.6-1.5l-0.2-4.2c-0.2-3.2,1.5-6,4.8-8c7-4.2,20.1-4.2,27,0c3.3,2,5,4.8,4.8,8
							l-0.2,4.2c0,0.9-0.8,1.5-1.6,1.5c-0.9,0-1.5-0.8-1.5-1.6l0.2-4.2c0.1-2-1-3.8-3.3-5.2c-6-3.6-17.8-3.6-23.8,0
							c-2.3,1.4-3.4,3.1-3.3,5.1l0.2,4.2C41.1,70.4,40.5,71.2,39.5,71.2C39.6,71.2,39.6,71.2,39.5,71.2z M56.1,52.7
							c-0.5,0-1-0.1-1.7-0.2c0,0-0.1,0-0.1,0c-2.9-0.7-5.8-2.7-7.1-5c-1.4-2.6-1.9-8.5-1.7-10.9c0.5-4.9,4.7-8.2,10.5-8.2
							c5.8,0,10.1,3.3,10.5,8.2c0.2,2.4-0.2,8.4-1.7,10.9c-1.3,2.3-4.1,4.3-7.1,5c0,0-0.1,0-0.1,0C57,52.7,56.6,52.7,56.1,52.7z
							 M54.9,49.5c1.1,0.2,1.2,0.2,2.3,0c2.1-0.5,4.1-1.9,5-3.4c0.9-1.7,1.5-6.9,1.3-9.1c-0.4-4-4.2-5.4-7.4-5.4
							c-3.2,0-7.1,1.4-7.4,5.4v0c-0.2,2.2,0.3,7.4,1.3,9.1C50.8,47.6,52.8,49,54.9,49.5z M47.1,36.8L47.1,36.8L47.1,36.8z"/>
					</g>
					<g>
						<path class="st3" d="M70.6,41.2c0.3-3.4,3.3-5,6.7-5c3.4,0,6.4,1.7,6.7,5c0.2,1.8-0.2,5.9-1.1,7.5c-0.8,1.4-2.5,2.7-4.5,3.1
							c-1,0.1-1.2,0.1-2.1,0c-2-0.5-3.7-1.8-4.5-3.1C70.9,47.1,70.5,42.9,70.6,41.2L70.6,41.2z"/>
					</g>
				</g>
			</g>
			<g>
				<path class="st3" d="M76.3,63.3h13.4l0.1-2.7c0.4-6.9-13.4-8.7-20.6-5.6C72.9,56.9,75.6,59.6,76.3,63.3z"/>
			</g>
		</g>
	</g>
	<g>
		<g>
			<path class="st0" d="M50,139.5v-0.7c-0.5,0.5-1.2,0.9-2,0.9c-1.2,0-2.5-0.7-2.5-2.5c0-1.6,1.3-2.4,2.9-2.4c0.7,0,1.2,0.1,1.6,0.3
				v-0.5c0-0.8-0.5-1.2-1.4-1.2c-0.8,0-1.3,0.1-1.9,0.5l-0.6-1.1c0.7-0.4,1.5-0.7,2.5-0.7c1.6,0,2.8,0.8,2.8,2.5v5H50z M50,136.4
				c-0.4-0.2-0.9-0.3-1.7-0.3c-0.9,0-1.5,0.4-1.5,1.1c0,0.7,0.5,1.2,1.4,1.2c0.8,0,1.4-0.5,1.8-0.9V136.4z"/>
		</g>
		<g>
			<path class="st0" d="M54.9,139.7c-1,0-2.1-0.4-2.8-0.9l0.7-1.1c0.7,0.5,1.5,0.7,2.1,0.7c0.9,0,1.3-0.3,1.3-0.8
				c0-0.6-0.6-0.8-1.7-1.2c-1.6-0.6-2.2-1.1-2.2-2.3c0-1.3,1-2,2.5-2c0.9,0,1.8,0.3,2.5,0.8l-0.6,1.1c-0.6-0.4-1.2-0.6-1.9-0.6
				c-0.7,0-1,0.3-1,0.7c0,0.4,0.3,0.6,1.4,1.1c1.6,0.6,2.5,1.1,2.5,2.5C57.7,139.1,56.4,139.7,54.9,139.7z"/>
		</g>
		<g>
			<path class="st0" d="M59.3,131.2c-0.5,0-0.9-0.4-0.9-0.9c0-0.5,0.4-0.9,0.9-0.9c0.5,0,0.9,0.4,0.9,0.9
				C60.2,130.8,59.8,131.2,59.3,131.2z M58.6,139.5v-7.4H60v7.4H58.6z"/>
		</g>
		<g>
			<path class="st0" d="M63.6,139.7c-1,0-2.1-0.4-2.8-0.9l0.7-1.1c0.7,0.5,1.5,0.7,2.1,0.7c0.9,0,1.3-0.3,1.3-0.8
				c0-0.6-0.6-0.8-1.7-1.2c-1.6-0.6-2.2-1.1-2.2-2.3c0-1.3,1-2,2.5-2c0.9,0,1.8,0.3,2.5,0.8l-0.6,1.1c-0.6-0.4-1.2-0.6-1.9-0.6
				c-0.7,0-1,0.3-1,0.7c0,0.4,0.2,0.6,1.4,1.1c1.6,0.6,2.5,1.1,2.5,2.5C66.4,139.1,65,139.7,63.6,139.7z"/>
		</g>
		<g>
			<path class="st0" d="M70.8,139.4c-0.3,0.2-0.8,0.3-1.4,0.3c-1,0-1.7-0.6-1.7-1.9v-4.2h-1v-1.3h1v-2.1l1.4-0.8v2.9H71v1.3h-1.8v4
				c0,0.7,0.2,0.9,0.8,0.9c0.4,0,0.8-0.1,1.1-0.3L70.8,139.4z"/>
		</g>
		<g>
			<path class="st0" d="M77.6,136.4h-4.9c0.2,1.4,1,2,1.8,2c0.6,0,1.1-0.2,1.6-0.6l0.9,0.9c-0.6,0.6-1.4,1-2.5,1
				c-1.7,0-3.2-1.4-3.2-3.8c0-2.5,1.3-3.8,3.2-3.8c2.1,0,3.1,1.7,3.1,3.7C77.7,136,77.6,136.2,77.6,136.4z M74.5,133.3
				c-1,0-1.6,0.7-1.7,1.9h3.4C76.1,134.2,75.7,133.3,74.5,133.3z"/>
		</g>
		<g>
			<path class="st0" d="M83,139.5v-4.2c0-1.5-0.6-2-1.5-2c-1,0-1.5,0.7-1.5,1.9v4.3h-1.4v-7.4h1.4v0.7c0.4-0.5,1.1-0.9,1.8-0.9
				c1.7,0,2.6,1.1,2.6,3.3v4.2H83z"/>
		</g>
		<g>
			<path class="st0" d="M89.1,139.4c-0.4,0.2-0.8,0.3-1.4,0.3c-1,0-1.7-0.6-1.7-1.9v-4.2H85v-1.3h1.1v-2.1l1.4-0.8v2.9h1.8v1.3h-1.8
				v4c0,0.7,0.2,0.9,0.8,0.9c0.4,0,0.8-0.1,1.1-0.3L89.1,139.4z"/>
		</g>
		<g>
			<path class="st0" d="M96.2,136.4h-4.9c0.2,1.4,1,2,1.9,2c0.6,0,1.1-0.2,1.6-0.6l0.9,0.9c-0.6,0.6-1.4,1-2.5,1
				c-1.7,0-3.2-1.4-3.2-3.8c0-2.5,1.3-3.8,3.2-3.8c2.1,0,3.1,1.7,3.1,3.7C96.3,136,96.3,136.2,96.2,136.4z M93.1,133.3
				c-1,0-1.6,0.7-1.7,1.9h3.4C94.8,134.2,94.3,133.3,93.1,133.3z"/>
		</g>
	</g>
</g>
</svg>
