<svg id="Layer_1" data-name="Layer 1" xmlns="http://www.w3.org/2000/svg" viewBox="0 0 127.56 141.73"><defs><style>.cls-1{fill:#4d4084;}.cls-2{fill:#415364;}.cls-3{fill:#a2a9ad;}</style></defs><title>imagotipo vertical-PROD</title><path class="cls-1" d="M64.68,122.59H61.92V127H59.41V114.48h5.48c2.37,0,4.33,1.31,4.33,4C69.22,121.37,67.28,122.59,64.68,122.59Zm.12-5.67H61.92v3.23h2.92c1.17,0,1.79-.54,1.79-1.63S65.92,116.92,64.8,116.92Z"/><path class="cls-1" d="M78.25,127,76,122.51H73.48V127H71V114.48h5.85c2.36,0,4.32,1.31,4.32,4a3.58,3.58,0,0,1-2.41,3.7L81.14,127Zm-1.49-10.11H73.48v3.23h3.28c1.17,0,1.79-.54,1.79-1.63S77.87,116.92,76.76,116.92Z"/><path class="cls-1" d="M87.93,127.23c-3.42,0-5.45-2.65-5.45-6.47s2-6.47,5.45-6.47,5.45,2.65,5.45,6.47S91.36,127.23,87.93,127.23Zm0-10.45c-2,0-2.87,1.74-2.87,4s.85,4,2.87,4,2.87-1.74,2.87-4S90,116.78,87.93,116.78Z"/><path class="cls-1" d="M99.06,127H95.31V114.48h3.93c3.59,0,6.24,1.69,6.24,6.28C105.48,125.17,102.29,127,99.06,127Zm.09-10.11H97.83v7.68h1.23c2.64,0,3.84-1.55,3.84-3.84C102.9,118.19,101.81,116.92,99.15,116.92Z"/><path class="cls-2" d="M25.91,117.8a6.17,6.17,0,0,0-2.89.68l.46,1a4.53,4.53,0,0,1,2.35-.66,1.66,1.66,0,0,1,1.87,1.9v1a4.61,4.61,0,0,0-2.15-.49c-1.71,0-3.3.82-3.3,2.75A2.53,2.53,0,0,0,25,126.77a3.54,3.54,0,0,0,2.69-1.23v1h1.23v-6C28.93,118.58,27.76,117.8,25.91,117.8Zm1.79,6.67a3,3,0,0,1-2.48,1.3,1.62,1.62,0,0,1-1.76-1.84c0-1.08.76-1.69,2-1.69a4.22,4.22,0,0,1,2.22.49Z"/><path class="cls-2" d="M33.21,121.59c-1.46-.66-1.9-1-1.9-1.68s.52-1.06,1.43-1.06a3.08,3.08,0,0,1,2.14.77l.69-.9a4.17,4.17,0,0,0-2.75-.92c-1.56,0-2.69.88-2.69,2.19s.72,1.91,2.44,2.65c1.53.65,2,1,2,1.75s-.56,1.33-1.74,1.33a3.52,3.52,0,0,1-2.35-1l-.72.9a4.8,4.8,0,0,0,3,1.1c1.5,0,3-.74,3-2.43S34.83,122.32,33.21,121.59Z"/><path class="cls-2" d="M41.12,117.8A3.41,3.41,0,0,0,38.53,119v-1H37.3v11.91l1.23-.93v-3.34A3,3,0,0,0,41,126.77c1.81,0,3.25-1.57,3.25-4.63S42.84,117.8,41.12,117.8Zm-.26,7.9a2.8,2.8,0,0,1-2.33-1.29v-4.3a2.9,2.9,0,0,1,2.28-1.25c1.36,0,2.18,1.13,2.18,3.3S42.28,125.7,40.86,125.7Z"/><polygon class="cls-2" points="53.77 115.32 53.77 126.59 55 126.59 55 114.35 53.77 115.32"/><path class="cls-2" d="M48.75,117.8c-2,0-3.56,1.7-3.56,4.44,0,3.38,1.92,4.53,3.49,4.53a5.1,5.1,0,0,0,3.09-1l-.58-.89a3.77,3.77,0,0,1-2.38.82h-.09s-2.33.11-2.33-3.42c0-3.33,1.9-3.43,2.27-3.41h.07c1.51,0,2.23,1.17,2.33,2.84H47.94l-1.35,1h5.57a4.08,4.08,0,0,0,.05-.67C52.21,119.57,51,117.8,48.75,117.8Z"/><path class="cls-1" d="M63.78,100.19A47.6,47.6,0,1,1,111.37,52.6,47.65,47.65,0,0,1,63.78,100.19Zm0-87.71A40.12,40.12,0,1,0,103.89,52.6,40.16,40.16,0,0,0,63.78,12.48Z"/><path class="cls-3" d="M54.28,62.3H50.63a2.42,2.42,0,0,1-2.39-2.1l-.3-2.27a14.07,14.07,0,0,1-2.34-1l-1.8,1.39a2.43,2.43,0,0,1-3.18-.21L38,55.54a2.41,2.41,0,0,1-.21-3.16l1.38-1.82a15.61,15.61,0,0,1-1-2.36L36,47.9a2.43,2.43,0,0,1-2.09-2.4V41.84A2.42,2.42,0,0,1,36,39.45l2.25-.3a15.31,15.31,0,0,1,1-2.37L37.83,35A2.42,2.42,0,0,1,38,31.8l2.58-2.59A2.41,2.41,0,0,1,43.8,29l1.8,1.38a15,15,0,0,1,2.34-1l.3-2.27A2.43,2.43,0,0,1,50.63,25h3.65a2.43,2.43,0,0,1,2.39,2.1l.3,2.27a15,15,0,0,1,2.34,1L61.11,29a2.41,2.41,0,0,1,3.18.21l2.54,2.54A2.47,2.47,0,0,1,67.05,35l-1.36,1.78a15.35,15.35,0,0,1,1,2.37l2.25.3A2.42,2.42,0,0,1,71,41.84V45.5a2.43,2.43,0,0,1-2.09,2.4l-2.25.3a15.66,15.66,0,0,1-1,2.36l1.39,1.82a2.43,2.43,0,0,1-.21,3.17l-2.54,2.54a2.55,2.55,0,0,1-3.27.22L59.31,57a14.07,14.07,0,0,1-2.34,1l-.3,2.27A2.42,2.42,0,0,1,54.28,62.3Zm-3-3.11h2.43L54,56.5a1.57,1.57,0,0,1,1.18-1.31,11.29,11.29,0,0,0,3.42-1.41,1.55,1.55,0,0,1,1.77.09l2.13,1.63,1.71-1.72L62.6,51.63a1.55,1.55,0,0,1-.09-1.76,11.4,11.4,0,0,0,1.41-3.44,1.56,1.56,0,0,1,1.31-1.18l2.67-.36V42.45l-2.67-.36a1.54,1.54,0,0,1-1.31-1.18,11.51,11.51,0,0,0-1.41-3.44,1.55,1.55,0,0,1,.09-1.76l1.63-2.15-1.71-1.72-2.13,1.64a1.59,1.59,0,0,1-1.77.09,11.57,11.57,0,0,0-3.42-1.42A1.57,1.57,0,0,1,54,30.84l-.35-2.68H51.24l-.35,2.68a1.57,1.57,0,0,1-1.19,1.31,11.62,11.62,0,0,0-3.41,1.42,1.57,1.57,0,0,1-1.77-.09l-2.13-1.64-1.72,1.72,1.64,2.15a1.57,1.57,0,0,1,.09,1.76A11.8,11.8,0,0,0,41,40.91a1.54,1.54,0,0,1-1.31,1.18L37,42.45v2.44l2.66.36A1.56,1.56,0,0,1,41,46.43a11.8,11.8,0,0,0,1.42,3.44,1.57,1.57,0,0,1-.09,1.76l-1.64,2.15,1.72,1.72,2.13-1.63a1.55,1.55,0,0,1,1.77-.09,11.34,11.34,0,0,0,3.41,1.41,1.57,1.57,0,0,1,1.19,1.31ZM63,55.84h0Zm0,0ZM40.24,53.35ZM64.62,34ZM63,31.47Z"/><path class="cls-3" d="M52.45,51.25A7.58,7.58,0,1,1,60,43.67,7.58,7.58,0,0,1,52.45,51.25Zm0-12a4.47,4.47,0,1,0,4.46,4.47A4.47,4.47,0,0,0,52.45,39.2Z"/><path class="cls-1" d="M93.8,57l-2.51-.18A10.8,10.8,0,0,0,89.91,54l1.38-2a1,1,0,0,0-.16-1.25L89,48.77a.89.89,0,0,0-1.18,0l-1.9,1.64a10.86,10.86,0,0,0-3-1l-.48-2.48a.89.89,0,0,0-.93-.72l-2.92.18a.88.88,0,0,0-.84.82l-.18,2.52a10.53,10.53,0,0,0-2.84,1.38l-2.08-1.4a.89.89,0,0,0-1.17.14L69.54,52a.9.9,0,0,0,0,1.18l1.64,1.91a10.79,10.79,0,0,0-1,3l-2.47.49a.88.88,0,0,0-.72.93l.18,2.93a.88.88,0,0,0,.82.84l2.51.18a10.8,10.8,0,0,0,1.38,2.86l-1.4,2.09a.89.89,0,0,0,.14,1.16l2.19,2a.9.9,0,0,0,1.18,0l1.9-1.64a10.86,10.86,0,0,0,3,1l.48,2.48a.9.9,0,0,0,.93.72L83.17,74a.89.89,0,0,0,.84-.83l.18-2.51A10.83,10.83,0,0,0,87,69.23l2,1.38a1,1,0,0,0,.59.16,1,1,0,0,0,.65-.32l1.91-2.16a.9.9,0,0,0,0-1.18L90.59,65.2a10.86,10.86,0,0,0,1-3l2.47-.48a.88.88,0,0,0,.72-.93l-.18-2.93A.88.88,0,0,0,93.8,57Zm-12.54,9.4a6.28,6.28,0,1,1,5.88-6.64A6.27,6.27,0,0,1,81.26,66.42Z"/></svg>