<svg id="Layer_1" data-name="Layer 1" xmlns="http://www.w3.org/2000/svg" viewBox="0 0 127.56 141.73"><defs><style>.cls-1{fill:#93d500;}.cls-2{fill:#415364;}.cls-3{fill:#a2a9ad;}</style></defs><title>imagotipo vertical-BANCO</title><path class="cls-1" d="M58.84,127.05H53.13V114.5h5.76c2.44,0,4,1.16,4,3.31a2.74,2.74,0,0,1-1.33,2.44A2.88,2.88,0,0,1,63.3,123C63.3,125.63,61.53,127.05,58.84,127.05Zm-.06-10.24H55.59v2.38h3.32c1,0,1.41-.48,1.41-1.18S59.88,116.81,58.78,116.81Zm.15,4.61H55.59v3.25h3.34c1.22,0,1.79-.65,1.79-1.64S60.15,121.42,58.93,121.42Z"/><path class="cls-1" d="M73.16,127.05l-1-2.8H67.59l-1,2.8H63.91l4.81-12.55h2.43l4.77,12.55Zm-2.65-7.46c-.25-.74-.5-1.49-.63-2-.13.46-.38,1.21-.63,2l-.8,2.28h2.86Z"/><path class="cls-1" d="M85.55,127.05l-4.61-6.85c-.3-.47-.71-1.09-.88-1.42,0,.47,0,2,0,2.75v5.52H77.63V114.5H80l4.44,6.63c.31.47.72,1.1.88,1.42,0-.47,0-2,0-2.74V114.5h2.47v12.55Z"/><path class="cls-1" d="M97.56,118.16a2.37,2.37,0,0,0-2.29-1.37c-1.89,0-3,1.65-3,4s1.09,4,3,4a2.61,2.61,0,0,0,2.45-1.59l2.12,1.25a4.8,4.8,0,0,1-4.65,2.84c-3.28,0-5.48-2.51-5.48-6.48,0-3.82,2.29-6.47,5.58-6.47a4.75,4.75,0,0,1,4.59,2.78Z"/><path class="cls-1" d="M106.14,127.25c-3.43,0-5.46-2.66-5.46-6.48s2-6.47,5.46-6.47,5.44,2.65,5.44,6.47S109.56,127.25,106.14,127.25Zm0-10.46c-2,0-2.87,1.74-2.87,4s.84,4,2.87,4,2.86-1.73,2.86-4S108.16,116.79,106.14,116.79Z"/><path class="cls-2" d="M19.63,117.81a6.2,6.2,0,0,0-2.89.69l.47,1a4.47,4.47,0,0,1,2.34-.66,1.66,1.66,0,0,1,1.87,1.91v1a4.71,4.71,0,0,0-2.15-.49c-1.7,0-3.3.82-3.3,2.76a2.54,2.54,0,0,0,2.76,2.76,3.58,3.58,0,0,0,2.69-1.23v1h1.23v-6C22.65,118.6,21.49,117.81,19.63,117.81Zm1.79,6.68a3,3,0,0,1-2.48,1.3A1.61,1.61,0,0,1,17.19,124c0-1.08.75-1.69,2-1.69a4.18,4.18,0,0,1,2.21.49Z"/><path class="cls-2" d="M26.94,121.6c-1.47-.66-1.91-.95-1.91-1.67s.53-1.07,1.43-1.07a3.14,3.14,0,0,1,2.15.77l.69-.9a4.27,4.27,0,0,0-2.76-.92c-1.56,0-2.69.89-2.69,2.2s.72,1.9,2.45,2.64c1.52.66,2,1,2,1.76s-.56,1.33-1.74,1.33a3.55,3.55,0,0,1-2.35-1l-.72.91a4.88,4.88,0,0,0,3,1.1c1.49,0,3-.74,3-2.43S28.56,122.34,26.94,121.6Z"/><path class="cls-2" d="M34.84,117.81A3.44,3.44,0,0,0,32.25,119V118H31v11.92l1.23-.94v-3.33a3.07,3.07,0,0,0,2.43,1.15c1.8,0,3.25-1.58,3.25-4.63S36.57,117.81,34.84,117.81Zm-.26,7.91a2.82,2.82,0,0,1-2.33-1.3v-4.29a2.91,2.91,0,0,1,2.28-1.25c1.36,0,2.19,1.13,2.19,3.3S36,125.72,34.58,125.72Z"/><polygon class="cls-2" points="47.49 115.33 47.49 126.61 48.73 126.61 48.73 114.37 47.49 115.33"/><path class="cls-2" d="M42.47,117.81c-2,0-3.56,1.71-3.56,4.45,0,3.38,1.92,4.53,3.5,4.53a5.11,5.11,0,0,0,3.08-1l-.57-.89a3.82,3.82,0,0,1-2.38.82h-.09s-2.34.11-2.34-3.42c0-3.34,1.91-3.43,2.28-3.42h.07c1.51,0,2.23,1.16,2.33,2.84H41.67l-1.35,1h5.57a4.12,4.12,0,0,0,0-.68C45.94,119.58,44.72,117.81,42.47,117.81Z"/><path class="cls-1" d="M63.78,100.21a47.61,47.61,0,1,1,47.6-47.61A47.66,47.66,0,0,1,63.78,100.21Zm0-87.73A40.13,40.13,0,1,0,103.9,52.6,40.17,40.17,0,0,0,63.78,12.48Z"/><path class="cls-3" d="M80.9,72.94H47.06A6.48,6.48,0,0,1,42,70.52a6.35,6.35,0,0,1-1.28-5.6l4.76-18.23A1.56,1.56,0,0,1,47,45.53h2.47a1.56,1.56,0,1,1,0,3.11H48.17L43.71,65.72a3.31,3.31,0,0,0,.69,2.85,3.36,3.36,0,0,0,2.66,1.25H80.9a3.44,3.44,0,0,0,2.93-1.66,3.37,3.37,0,0,0,.4-2.53l-.58-2.18L79.88,48.64H78.61a1.56,1.56,0,1,1,0-3.11h2.48a1.54,1.54,0,0,1,1.5,1.17l4.65,18.13a6.43,6.43,0,0,1-.74,4.92A6.55,6.55,0,0,1,80.9,72.94Z"/><path class="cls-1" d="M85.05,36.88H42.9a5.46,5.46,0,0,0-5.45,5.45V50.5a5.46,5.46,0,0,0,3.62,5.13l2.3-8.09a17.17,17.17,0,0,1,.51-1.73,3.69,3.69,0,0,1,3.45-2.39H80.62a3.71,3.71,0,0,1,3.46,2.39c.21.55.34,1.16.5,1.73l2.3,8.09A5.46,5.46,0,0,0,90.5,50.5V42.33A5.46,5.46,0,0,0,85.05,36.88Z"/><path class="cls-1" d="M65.76,55.14l-1-.21,0-2.74a1.62,1.62,0,0,1,1.66,1.46h2.81c-.32-2.08-2.24-3-4.49-3.15V49.43H63.57V50.5c-2.26.09-4.46,1.1-4.62,3.16s1.85,2.79,3.91,3.26a5.9,5.9,0,0,1,.67.15l0,3.81a2.39,2.39,0,0,1-2.26-2.46h-3c.09,2.94,1.91,4.55,5.26,4.78V65a.69.69,0,0,0,1.37,0h0l0-1.78c4.51-.27,5.43-3,5.33-4.05S69.79,56,65.76,55.14Zm-4-1.69c0-.84.92-1.26,1.79-1.26l0,2.52C62.25,54.47,61.74,54.13,61.76,53.45Zm3,7.43,0-3.52c1.67.39,2.29.72,2.34,1.68C67.14,60.23,65.87,60.78,64.79,60.88Z"/></svg>