<?xml version="1.0" encoding="utf-8"?>
<!-- Generator: Adobe Illustrator 24.2.1, SVG Export Plug-In . SVG Version: 6.00 Build 0)  -->
<svg version="1.1" id="Layer_1" xmlns="http://www.w3.org/2000/svg" xmlns:xlink="http://www.w3.org/1999/xlink" x="0px" y="0px"
	 viewBox="0 0 127.6 141.7" style="enable-background:new 0 0 127.6 141.7;" xml:space="preserve">
<style type="text/css">
	.st0{fill:#A2D9E7;}
	.st1{fill:#415364;}
	.st2{fill:#A2A9AD;}
	.st3{fill:#FFFFFF;}
</style>
<g>
	<g>
		<g>
			<g>
				<g>
					<path class="st0" d="M46.5,127v-12.6h8.7v2.5H49v2.2h3.6v2.4H49v3h6.5v2.5H46.5z"/>
				</g>
				<g>
					<path class="st0" d="M61.5,127.2c-2.1,0-3.9-0.9-4.9-2.3l1.8-1.6c0.9,1,2,1.4,3.2,1.4c1.5,0,2.2-0.4,2.2-1.4
						c0-0.8-0.4-1.2-2.8-1.7c-2.3-0.5-3.9-1.3-3.9-3.7c0-2.3,2-3.7,4.5-3.7c2,0,3.4,0.7,4.6,2l-1.8,1.8c-0.8-0.8-1.7-1.3-2.9-1.3
						c-1.3,0-1.8,0.6-1.8,1.1c0,0.8,0.5,1,2.5,1.5c2,0.5,4.2,1.1,4.2,3.9C66.5,125.6,65,127.2,61.5,127.2z"/>
				</g>
				<g>
					<path class="st0" d="M73.8,122.6H71v4.4h-2.5v-12.6H74c2.4,0,4.3,1.3,4.3,4C78.3,121.4,76.4,122.6,73.8,122.6z M73.9,116.9H71
						v3.2h2.9c1.2,0,1.8-0.5,1.8-1.6C75.7,117.4,75,116.9,73.9,116.9z"/>
				</g>
				<g>
					<path class="st0" d="M87.1,127l-1-2.8h-4.6l-1,2.8h-2.7l4.8-12.6h2.4l4.8,12.6H87.1z M84.4,119.6c-0.3-0.7-0.5-1.5-0.6-2
						c-0.1,0.5-0.4,1.2-0.6,2l-0.8,2.3h2.9L84.4,119.6z"/>
				</g>
				<g>
					<path class="st0" d="M98.3,118.2c-0.4-0.9-1.2-1.4-2.3-1.4c-1.9,0-3,1.7-3,4c0,2.3,1.1,4,3,4c1.1,0,1.8-0.5,2.5-1.6l2.1,1.3
						c-0.9,1.8-2.4,2.8-4.6,2.8c-3.3,0-5.5-2.5-5.5-6.5c0-3.8,2.3-6.5,5.6-6.5c2.4,0,3.8,1.1,4.6,2.8L98.3,118.2z"/>
				</g>
				<g>
					<path class="st0" d="M102.7,127v-12.6h2.5V127H102.7z"/>
				</g>
				<g>
					<path class="st0" d="M112.8,127.2c-3.4,0-5.5-2.7-5.5-6.5c0-3.8,2-6.5,5.5-6.5c3.4,0,5.5,2.7,5.5,6.5
						C118.2,124.6,116.2,127.2,112.8,127.2z M112.8,116.8c-2,0-2.9,1.7-2.9,4c0,2.2,0.8,4,2.9,4c2,0,2.9-1.7,2.9-4
						C115.6,118.5,114.8,116.8,112.8,116.8z"/>
				</g>
			</g>
			<g>
				<g>
					<path class="st1" d="M13,117.8c-1.1,0-2.1,0.3-2.9,0.7l0.5,1c0.7-0.4,1.4-0.7,2.3-0.7c1.3,0,1.9,0.6,1.9,1.9v1
						c-0.5-0.3-1.3-0.5-2.1-0.5c-1.7,0-3.3,0.8-3.3,2.8c0,2.1,1.4,2.8,2.8,2.8c1.2,0,2.1-0.6,2.7-1.2v1H16v-6
						C16,118.6,14.9,117.8,13,117.8z M14.8,124.5c-0.5,0.7-1.4,1.3-2.5,1.3c-1,0-1.8-0.6-1.8-1.8c0-1.1,0.8-1.7,2-1.7
						c1.1,0,1.7,0.2,2.2,0.5V124.5z"/>
				</g>
				<g>
					<path class="st1" d="M20.3,121.6c-1.5-0.7-1.9-1-1.9-1.7c0-0.6,0.5-1.1,1.4-1.1c0.9,0,1.5,0.2,2.1,0.8l0.7-0.9
						c-0.7-0.5-1.6-0.9-2.8-0.9c-1.6,0-2.7,0.9-2.7,2.2c0,1.4,0.7,1.9,2.4,2.6c1.5,0.7,2,1,2,1.8c0,0.8-0.6,1.3-1.7,1.3
						c-0.9,0-1.7-0.3-2.3-1l-0.7,0.9c0.8,0.7,1.9,1.1,3,1.1c1.5,0,3-0.7,3-2.4C22.9,122.8,21.9,122.3,20.3,121.6z"/>
				</g>
				<g>
					<path class="st1" d="M28.2,117.8c-1.2,0-2,0.6-2.6,1.2V118h-1.2v11.9l1.2-0.9v-3.3c0.6,0.7,1.3,1.1,2.4,1.1
						c1.8,0,3.2-1.6,3.2-4.6C31.3,119.1,29.9,117.8,28.2,117.8z M28,125.7c-1,0-1.9-0.6-2.3-1.3v-4.3c0.6-0.8,1.4-1.2,2.3-1.2
						c1.4,0,2.2,1.1,2.2,3.3C30.1,124.5,29.4,125.7,28,125.7z"/>
				</g>
				<g>
					<polygon class="st1" points="40.9,115.3 40.9,126.6 42.1,126.6 42.1,114.4 					"/>
				</g>
				<g>
					<path class="st1" d="M35.9,117.8c-2.1,0-3.6,1.7-3.6,4.5c0,3.4,1.9,4.5,3.5,4.5c1.3,0,2.1-0.3,3.1-1l-0.6-0.9
						c-0.8,0.5-1.4,0.8-2.4,0.8c0,0-0.1,0-0.1,0l0,0c0,0-2.3,0.1-2.3-3.4c0-3.3,1.9-3.4,2.3-3.4c0,0,0,0,0.1,0
						c1.5,0,2.2,1.2,2.3,2.8H35l-1.4,1h5.6c0-0.2,0-0.4,0-0.7C39.3,119.6,38.1,117.8,35.9,117.8z"/>
				</g>
			</g>
		</g>
	</g>
	<g>
		<g>
			<g>
				<g>
					<g>
						<path class="st0" d="M63.8,100.2c-26.2,0-47.6-21.4-47.6-47.6S37.5,5,63.8,5c26.2,0,47.6,21.4,47.6,47.6S90,100.2,63.8,100.2z
							 M63.8,12.5c-22.1,0-40.1,18-40.1,40.1s18,40.1,40.1,40.1c22.1,0,40.1-18,40.1-40.1S85.9,12.5,63.8,12.5z"/>
					</g>
				</g>
			</g>
		</g>
		<g>
			<g>
				<path class="st2" d="M88.7,44.4c-0.1-5.7-4.7-10.3-10.5-10.3c-1.4,0-2.9,0.3-4.2,0.9c-2.5-3.8-6.7-6.1-11.3-6.1
					c-5.2,0-9.8,2.9-12.1,7.5c-2.2-1.1-4.7-1.4-7.2-0.8c-4.1,1-7.2,4.6-7.8,8.8c-0.2,1.4-0.1,2.7,0.2,4c-4.6,1.1-7.8,6-6.2,11.1
					c1.1,3.6,4.7,5.9,8.4,5.9h10.6c0.9,0,1.6-0.7,1.6-1.6l0,0c0-0.9-0.7-1.6-1.6-1.6H38.2c-2.5,0-4.7-1.6-5.3-3.9
					c-0.7-2.5,0.5-5.1,3-6.3c0.6-0.3,1.2-0.4,1.8-0.4l2.9-0.2l-1.1-2.8c-0.4-1-0.5-2-0.5-3c0.2-3,2.2-5.7,5.1-6.5
					c2.1-0.6,4.3-0.3,6,0.9l2.3,1.5l1-2.5c0.3-0.8,0.7-1.7,1.3-2.4c3.2-4.2,8.7-5.4,13.6-2.8c1.4,0.8,2.5,2,3.3,3.3l1.4,2.5l2-1.1
					c0.4-0.2,0.7-0.4,1.1-0.5c4.9-1.5,9.5,2.1,9.5,6.8c0,0.2,0,0.4,0,0.6l-0.2,2.4l2.5,0c4.5,0,8,4.2,7,8.8C94,59.8,90.9,62,87.5,62
					h-9.2c-0.9,0-1.6,0.7-1.6,1.6l0,0c0,0.9,0.7,1.6,1.6,1.6h9.1c5.1,0,9.7-3.5,10.6-8.5C99.1,50.5,94.7,45,88.7,44.4z"/>
			</g>
		</g>
		<g>
			<path class="st0" d="M74,69.2l-8.3,7.6c-1.1,1-2.7,1-3.8,0l-8.3-7.6c-0.6-0.6-1-1.4-1-2.2V53.6c0-1.5,1-2.7,2.4-2.9l8.3-1.2
				c0.3,0,0.5,0,0.8,0l8.3,1.2c1.4,0.2,2.4,1.5,2.4,2.9V67C75,67.8,74.6,68.7,74,69.2z"/>
			<path class="st3" d="M61.9,67.5l-4.7-4.4c-0.3-0.3-0.3-0.8,0-1.1l1.4-1.3c0.3-0.3,0.7-0.3,1,0l2.3,2.2c0.3,0.3,0.7,0.3,1,0
				l5.7-5.3c0.3-0.3,0.7-0.3,1,0l1.4,1.3c0.3,0.3,0.3,0.8,0,1.1l-8.1,7.6C62.6,67.8,62.2,67.8,61.9,67.5z"/>
		</g>
	</g>
</g>
</svg>
