<svg id="Layer_1" data-name="Layer 1" xmlns="http://www.w3.org/2000/svg" viewBox="0 0 127.56 141.73"><defs><style>.cls-1{fill:#00acd8;}.cls-2{fill:#a2a9ae;}.cls-3{fill:#415364;}.cls-4{fill:#a2a9ad;}</style></defs><title>imagotipo vertical-COI</title><path class="cls-1" d="M63.78,100.21a47.61,47.61,0,1,1,47.6-47.61A47.66,47.66,0,0,1,63.78,100.21Zm0-87.73A40.12,40.12,0,1,0,103.9,52.6,40.17,40.17,0,0,0,63.78,12.48Z"/><path class="cls-1" d="M54,67.75a2.28,2.28,0,1,1,2.28-2.27A2.27,2.27,0,0,1,54,67.75Zm0-6.82a2.28,2.28,0,1,1,2.28-2.28A2.28,2.28,0,0,1,54,60.93Zm0-6.83a2.28,2.28,0,1,1,2.28-2.27A2.27,2.27,0,0,1,54,54.1Zm6.6,13.65a2.28,2.28,0,1,1,2.27-2.27A2.27,2.27,0,0,1,60.6,67.75Zm0-6.82a2.28,2.28,0,1,1,2.27-2.28A2.28,2.28,0,0,1,60.6,60.93Zm0-6.83a2.28,2.28,0,1,1,2.27-2.27A2.28,2.28,0,0,1,60.6,54.1Zm6.65,13.65a2.28,2.28,0,1,1,2.27-2.27A2.27,2.27,0,0,1,67.25,67.75Zm0-6.82a2.28,2.28,0,1,1,2.27-2.28A2.28,2.28,0,0,1,67.25,60.93Zm0-6.83a2.28,2.28,0,1,1,2.27-2.27A2.28,2.28,0,0,1,67.25,54.1Zm8.66,11.38a2.09,2.09,0,1,1-4.16,0V58.65a2.09,2.09,0,1,1,4.16,0ZM73.84,54.1a2.28,2.28,0,1,1,2.27-2.27A2.28,2.28,0,0,1,73.84,54.1Z"/><rect class="cls-2" x="51.9" y="35.76" width="24" height="9.39"/><path class="cls-1" d="M76,118.16a2.37,2.37,0,0,0-2.29-1.37c-1.89,0-3,1.65-3,4s1.09,4,3,4a2.63,2.63,0,0,0,2.46-1.59l2.12,1.25a4.8,4.8,0,0,1-4.65,2.84c-3.28,0-5.48-2.52-5.48-6.48s2.29-6.47,5.57-6.47a4.73,4.73,0,0,1,4.59,2.78Z"/><path class="cls-1" d="M84.61,127.25c-3.42,0-5.45-2.66-5.45-6.48s2-6.47,5.45-6.47,5.45,2.65,5.45,6.47S88,127.25,84.61,127.25Zm0-10.46c-2,0-2.87,1.74-2.87,4s.85,4,2.87,4,2.87-1.74,2.87-4S86.64,116.79,84.61,116.79Z"/><path class="cls-1" d="M92.18,127.05V114.5h2.51v12.55Z"/><path class="cls-3" d="M35.37,117.81a6.14,6.14,0,0,0-2.89.69l.46,1a4.47,4.47,0,0,1,2.34-.66,1.67,1.67,0,0,1,1.88,1.91v1a4.74,4.74,0,0,0-2.15-.49c-1.71,0-3.3.82-3.3,2.76a2.53,2.53,0,0,0,2.75,2.76,3.58,3.58,0,0,0,2.7-1.23v1h1.23v-6C38.39,118.6,37.22,117.81,35.37,117.81Zm1.79,6.68a3,3,0,0,1-2.48,1.29A1.61,1.61,0,0,1,32.92,124c0-1.09.76-1.69,2-1.69a4.22,4.22,0,0,1,2.22.49Z"/><path class="cls-3" d="M42.67,121.6c-1.46-.66-1.91-.95-1.91-1.67s.53-1.07,1.43-1.07a3.14,3.14,0,0,1,2.15.77l.69-.9a4.25,4.25,0,0,0-2.76-.92c-1.55,0-2.69.89-2.69,2.2s.73,1.9,2.45,2.64c1.52.66,2,1,2,1.76s-.55,1.33-1.74,1.33a3.53,3.53,0,0,1-2.34-1l-.72.91a4.85,4.85,0,0,0,3,1.1c1.49,0,3-.74,3-2.43S44.29,122.34,42.67,121.6Z"/><path class="cls-3" d="M50.58,117.81A3.41,3.41,0,0,0,48,119V118H46.75v11.92L48,129v-3.33a3,3,0,0,0,2.42,1.15c1.81,0,3.25-1.58,3.25-4.63S52.3,117.81,50.58,117.81Zm-.26,7.91a2.81,2.81,0,0,1-2.33-1.3v-4.3a2.91,2.91,0,0,1,2.27-1.24c1.37,0,2.19,1.13,2.19,3.29C52.45,124.49,51.74,125.72,50.32,125.72Z"/><polygon class="cls-3" points="63.23 115.33 63.23 126.61 64.46 126.61 64.46 114.37 63.23 115.33"/><path class="cls-3" d="M58.21,117.81c-2.05,0-3.56,1.71-3.56,4.45,0,3.38,1.92,4.53,3.49,4.53a5.11,5.11,0,0,0,3.09-1l-.58-.88a3.85,3.85,0,0,1-2.38.82h-.09s-2.33.1-2.33-3.42c0-3.34,1.9-3.43,2.27-3.42h.07c1.51,0,2.23,1.16,2.33,2.83H57.41l-1.36,1h5.57a4.12,4.12,0,0,0,.05-.68C61.67,119.58,60.46,117.81,58.21,117.81Z"/><path class="cls-4" d="M77.65,77.7H50.15A6.15,6.15,0,0,1,44,71.56V33.27a6.15,6.15,0,0,1,6.14-6.14h27.5a6.15,6.15,0,0,1,6.14,6.14V71.56A6.15,6.15,0,0,1,77.65,77.7ZM50.15,30.25a3,3,0,0,0-3,3V71.56a3,3,0,0,0,3,3h27.5a3,3,0,0,0,3-3V33.27a3,3,0,0,0-3-3Z"/></svg>