<?xml version="1.0" encoding="utf-8"?>
<!-- Generator: Adobe Illustrator 24.1.2, SVG Export Plug-In . SVG Version: 6.00 Build 0)  -->
<svg version="1.1" id="Layer_1" xmlns="http://www.w3.org/2000/svg" xmlns:xlink="http://www.w3.org/1999/xlink" x="0px" y="0px"
	 viewBox="0 0 127.6 141.7" style="enable-background:new 0 0 127.6 141.7;" xml:space="preserve">
<style type="text/css">
	.st0{fill:#A2A9AD;}
	.st1{fill:#00AF9A;}
	.st2{fill:#415364;}
</style>
<g>
	<g>
		<g>
			<g>
				<path class="st0" d="M81,77H46.7c-2.4,0-4.4-2-4.4-4.4c0-0.1,0-0.2,0-0.3c0-0.1,0-0.2,0-0.3v-1.6c0-1.5,1.3-2.8,2.8-2.8h2.3
					c0.1-0.8,0.8-1.3,1.5-1.3c0.9,0,1.6,0.7,1.6,1.6c0,1.6-1.3,2.9-2.9,2.9h-2.2v1.2c0,0.1,0,0.2,0,0.3c0,0.1,0,0.2,0,0.3
					c0,0.7,0.6,1.2,1.2,1.2H81c0.7,0,1.2-0.6,1.2-1.2V31.4c0-0.7-0.6-1.2-1.2-1.2H46.7c-0.7,0-1.2,0.6-1.2,1.2
					c0,0.9-0.7,1.6-1.6,1.6c-0.9,0-1.6-0.7-1.6-1.6c0-2.4,2-4.4,4.4-4.4H81c2.4,0,4.4,2,4.4,4.4v41.3C85.4,75,83.4,77,81,77z
					 M43.9,66.4c-0.9,0-1.6-0.7-1.6-1.6c0-1.5,1.3-2.8,2.8-2.8h2.3c0.1-0.8,0.8-1.3,1.5-1.3c0.9,0,1.6,0.7,1.6,1.6
					c0,1.6-1.3,2.9-2.9,2.9h-2.2C45.3,65.9,44.6,66.4,43.9,66.4z M43.9,60.7c-0.9,0-1.6-0.7-1.6-1.6c0-1.5,1.3-2.8,2.8-2.8h2.3
					c0.1-0.8,0.8-1.3,1.5-1.3c0.9,0,1.6,0.7,1.6,1.6c0,1.6-1.3,2.9-2.9,2.9h-2.2C45.3,60.2,44.6,60.7,43.9,60.7z M43.9,55.1
					c-0.9,0-1.6-0.7-1.6-1.6c0-1.5,1.3-2.8,2.8-2.8h2.3c0.1-0.8,0.8-1.3,1.5-1.3c0.9,0,1.6,0.7,1.6,1.6c0,1.6-1.3,2.9-2.9,2.9h-2.2
					C45.3,54.5,44.6,55.1,43.9,55.1z M43.9,49.4c-0.9,0-1.6-0.7-1.6-1.6c0-1.5,1.3-2.8,2.8-2.8h2.3c0.1-0.8,0.8-1.3,1.5-1.3
					c0.9,0,1.6,0.7,1.6,1.6c0,1.6-1.3,2.9-2.9,2.9h-2.2C45.3,48.9,44.6,49.4,43.9,49.4z M43.9,43.7c-0.9,0-1.6-0.7-1.6-1.6
					c0-1.5,1.3-2.8,2.8-2.8h2.3c0.1-0.8,0.8-1.3,1.5-1.3c0.9,0,1.6,0.7,1.6,1.6c0,1.6-1.3,2.9-2.9,2.9h-2.2
					C45.3,43.2,44.6,43.7,43.9,43.7z M43.9,38.1c-0.9,0-1.6-0.7-1.6-1.6c0-1.5,1.3-2.8,2.8-2.8h2.3c0.1-0.8,0.8-1.3,1.5-1.3
					c0.9,0,1.6,0.7,1.6,1.6c0,1.6-1.3,2.9-2.9,2.9h-2.2C45.3,37.5,44.6,38.1,43.9,38.1z"/>
			</g>
		</g>
		<g>
			<g>
				<g>
					<g>
						<g>
							<path class="st1" d="M63.8,100.2c-26.2,0-47.6-21.4-47.6-47.6C16.2,26.4,37.5,5,63.8,5c26.2,0,47.6,21.4,47.6,47.6
								C111.4,78.8,90,100.2,63.8,100.2z M63.8,12.5c-22.1,0-40.1,18-40.1,40.1c0,22.1,18,40.1,40.1,40.1c22.1,0,40.1-18,40.1-40.1
								C103.9,30.5,85.9,12.5,63.8,12.5z"/>
						</g>
					</g>
					<g>
						<g>
							<g>
								<path class="st1" d="M61.4,118.2c-0.4-0.9-1.2-1.4-2.3-1.4c-1.9,0-3,1.7-3,4c0,2.3,1.1,4,3,4c1.1,0,1.8-0.5,2.5-1.6l2.1,1.3
									c-0.9,1.8-2.4,2.8-4.6,2.8c-3.3,0-5.5-2.5-5.5-6.5c0-3.8,2.3-6.5,5.6-6.5c2.4,0,3.8,1.1,4.6,2.8L61.4,118.2z"/>
							</g>
							<g>
								<path class="st1" d="M70,127.3c-3.4,0-5.5-2.7-5.5-6.5c0-3.8,2-6.5,5.5-6.5c3.4,0,5.5,2.7,5.5,6.5
									C75.4,124.6,73.4,127.3,70,127.3z M70,116.8c-2,0-2.9,1.7-2.9,4c0,2.2,0.8,4,2.9,4c2,0,2.9-1.7,2.9-4
									C72.8,118.5,72,116.8,70,116.8z"/>
							</g>
							<g>
								<path class="st1" d="M85.3,127.1l-4.6-6.9c-0.3-0.5-0.7-1.1-0.9-1.4c0,0.5,0,2,0,2.7v5.5h-2.5v-12.6h2.4l4.4,6.6
									c0.3,0.5,0.7,1.1,0.9,1.4c0-0.5,0-2,0-2.7v-5.3h2.5v12.6H85.3z"/>
							</g>
							<g>
								<path class="st1" d="M95.4,117v10.1h-2.5V117h-3.6v-2.5H99v2.5H95.4z"/>
							</g>
							<g>
								<path class="st1" d="M107.5,127.1l-1-2.8h-4.6l-1,2.8h-2.7l4.8-12.6h2.4l4.8,12.6H107.5z M104.8,119.6
									c-0.3-0.7-0.5-1.5-0.6-2c-0.1,0.5-0.4,1.2-0.6,2l-0.8,2.3h2.9L104.8,119.6z"/>
							</g>
						</g>
						<g>
							<g>
								<path class="st2" d="M20.7,117.8c-1.1,0-2.1,0.3-2.9,0.7l0.5,1c0.7-0.4,1.4-0.7,2.3-0.7c1.3,0,1.9,0.6,1.9,1.9v1
									c-0.5-0.3-1.3-0.5-2.2-0.5c-1.7,0-3.3,0.8-3.3,2.8c0,2.1,1.4,2.8,2.8,2.8c1.2,0,2.1-0.6,2.7-1.2v1h1.2v-6
									C23.7,118.6,22.6,117.8,20.7,117.8z M22.5,124.5c-0.5,0.7-1.4,1.3-2.5,1.3c-1,0-1.8-0.6-1.8-1.8c0-1.1,0.8-1.7,2-1.7
									c1,0,1.7,0.2,2.2,0.5V124.5z"/>
							</g>
							<g>
								<path class="st2" d="M28,121.6c-1.5-0.7-1.9-1-1.9-1.7c0-0.6,0.5-1.1,1.4-1.1c0.9,0,1.5,0.2,2.2,0.8l0.7-0.9
									c-0.7-0.5-1.6-0.9-2.8-0.9c-1.6,0-2.7,0.9-2.7,2.2c0,1.4,0.7,1.9,2.4,2.6c1.5,0.7,2,1,2,1.8c0,0.8-0.6,1.3-1.7,1.3
									c-0.9,0-1.7-0.3-2.3-1l-0.7,0.9c0.8,0.7,1.9,1.1,3,1.1c1.5,0,3-0.7,3-2.4C30.6,122.8,29.6,122.4,28,121.6z"/>
							</g>
							<g>
								<path class="st2" d="M35.9,117.8c-1.2,0-2,0.6-2.6,1.2V118h-1.2v11.9l1.2-0.9v-3.3c0.6,0.7,1.3,1.1,2.4,1.1
									c1.8,0,3.2-1.6,3.2-4.6C39,119.1,37.7,117.8,35.9,117.8z M35.7,125.7c-1,0-1.9-0.6-2.3-1.3v-4.3c0.6-0.8,1.4-1.2,2.3-1.2
									c1.4,0,2.2,1.1,2.2,3.3C37.8,124.5,37.1,125.7,35.7,125.7z"/>
							</g>
							<g>
								<polygon class="st2" points="48.6,115.3 48.6,126.6 49.8,126.6 49.8,114.4 								"/>
							</g>
							<g>
								<path class="st2" d="M43.6,117.8c-2.1,0-3.6,1.7-3.6,4.4c0,3.4,1.9,4.5,3.5,4.5c1.3,0,2.1-0.3,3.1-1l-0.6-0.9
									c-0.8,0.5-1.4,0.8-2.4,0.8c0,0-0.1,0-0.1,0l0,0c0,0-2.3,0.1-2.3-3.4c0-3.3,1.9-3.4,2.3-3.4c0,0,0,0,0.1,0
									c1.5,0,2.2,1.2,2.3,2.8h-3.1l-1.4,1H47c0-0.2,0.1-0.4,0.1-0.7C47,119.6,45.8,117.8,43.6,117.8z"/>
							</g>
						</g>
					</g>
				</g>
				<g>
					<g>
						<g>
							<path class="st1" d="M65.3,42.3c-5.2,0-9.4,4.2-9.4,9.4c0,5.2,4.2,9.4,9.4,9.4c5.2,0,9.4-4.2,9.4-9.4
								C74.7,46.5,70.5,42.3,65.3,42.3z M65.3,58.7c-3.9,0-7-3.1-7-7c0-3.9,3.1-7,7-7c3.9,0,7,3.1,7,7
								C72.3,55.6,69.1,58.7,65.3,58.7z"/>
						</g>
					</g>
					<g>
						<g>
							<path class="st1" d="M66,56v1.2h-1.7V56c-1.1-0.2-2-0.7-2.5-1.5l1.2-1.1c0.6,0.7,1.4,1,2.2,1c1,0,1.5-0.2,1.5-0.9
								c0-0.5-0.3-0.8-1.9-1.1c-1.6-0.4-2.6-0.9-2.6-2.5c0-1.3,0.9-2.1,2.2-2.3v-1.2H66v1.2c0.9,0.2,1.6,0.6,2.2,1.2L67,50
								c-0.5-0.6-1.1-0.9-1.9-0.9c-0.9,0-1.2,0.3-1.2,0.7c0,0.5,0.4,0.7,1.7,1c1.3,0.3,2.8,0.8,2.8,2.6C68.4,54.8,67.6,55.7,66,56z"
								/>
						</g>
					</g>
				</g>
			</g>
		</g>
	</g>
	<g>
		<g>
			<path class="st1" d="M60.8,139.5v-0.7c-0.5,0.5-1.2,0.9-2,0.9c-1.2,0-2.5-0.7-2.5-2.5c0-1.6,1.3-2.4,2.9-2.4
				c0.7,0,1.2,0.1,1.6,0.3v-0.5c0-0.8-0.5-1.2-1.4-1.2c-0.8,0-1.3,0.1-1.9,0.5l-0.6-1.1c0.7-0.4,1.5-0.7,2.5-0.7
				c1.6,0,2.8,0.8,2.8,2.5v5H60.8z M60.8,136.4c-0.4-0.2-0.9-0.3-1.7-0.3c-0.9,0-1.5,0.4-1.5,1.1c0,0.7,0.5,1.2,1.4,1.2
				c0.8,0,1.4-0.5,1.8-0.9V136.4z"/>
		</g>
		<g>
			<path class="st1" d="M66.1,139.7c-1,0-2.1-0.4-2.8-0.9l0.7-1.1c0.7,0.5,1.5,0.7,2.1,0.7c0.9,0,1.3-0.3,1.3-0.8
				c0-0.6-0.6-0.8-1.7-1.2c-1.6-0.6-2.2-1.1-2.2-2.3c0-1.3,1-2,2.5-2c0.9,0,1.8,0.3,2.5,0.8l-0.6,1.1c-0.6-0.4-1.2-0.6-1.9-0.6
				c-0.7,0-1,0.3-1,0.7c0,0.4,0.3,0.6,1.4,1.1c1.6,0.6,2.5,1.1,2.5,2.5C68.9,139.1,67.6,139.7,66.1,139.7z"/>
		</g>
		<g>
			<path class="st1" d="M71.1,131.2c-0.5,0-0.9-0.4-0.9-0.9c0-0.5,0.4-0.9,0.9-0.9c0.5,0,0.9,0.4,0.9,0.9
				C72,130.8,71.6,131.2,71.1,131.2z M70.3,139.5v-7.4h1.4v7.4H70.3z"/>
		</g>
		<g>
			<path class="st1" d="M75.9,139.7c-1,0-2.1-0.4-2.8-0.9l0.7-1.1c0.7,0.5,1.5,0.7,2.1,0.7c0.9,0,1.3-0.3,1.3-0.8
				c0-0.6-0.6-0.8-1.7-1.2c-1.6-0.6-2.2-1.1-2.2-2.3c0-1.3,1-2,2.5-2c0.9,0,1.8,0.3,2.5,0.8l-0.6,1.1c-0.6-0.4-1.2-0.6-1.9-0.6
				c-0.7,0-1,0.3-1,0.7c0,0.4,0.2,0.6,1.4,1.1c1.6,0.6,2.5,1.1,2.5,2.5C78.6,139.1,77.3,139.7,75.9,139.7z"/>
		</g>
		<g>
			<path class="st1" d="M83.4,139.3c-0.3,0.2-0.8,0.3-1.4,0.3c-1,0-1.7-0.6-1.7-1.9v-4.2h-1v-1.3h1V130l1.4-0.8v2.9h1.8v1.3h-1.8v4
				c0,0.7,0.2,0.9,0.8,0.9c0.4,0,0.8-0.1,1.1-0.3L83.4,139.3z"/>
		</g>
		<g>
			<path class="st1" d="M90.6,136.3h-4.9c0.2,1.4,1,2,1.8,2c0.6,0,1.1-0.2,1.6-0.6l0.9,0.9c-0.6,0.6-1.4,1-2.5,1
				c-1.7,0-3.2-1.4-3.2-3.8c0-2.5,1.3-3.8,3.2-3.8c2.1,0,3.1,1.7,3.1,3.7C90.7,135.9,90.6,136.2,90.6,136.3z M87.5,133.3
				c-1,0-1.6,0.7-1.7,1.9h3.4C89.2,134.1,88.7,133.3,87.5,133.3z"/>
		</g>
		<g>
			<path class="st1" d="M96.4,139.5v-4.2c0-1.5-0.6-2-1.5-2c-1,0-1.5,0.7-1.5,1.9v4.3H92v-7.4h1.4v0.7c0.4-0.5,1.1-0.9,1.8-0.9
				c1.7,0,2.6,1.1,2.6,3.3v4.2H96.4z"/>
		</g>
		<g>
			<path class="st1" d="M102.9,139.3c-0.4,0.2-0.8,0.3-1.4,0.3c-1,0-1.7-0.6-1.7-1.9v-4.2h-1.1v-1.3h1.1V130l1.4-0.8v2.9h1.8v1.3
				h-1.8v4c0,0.7,0.2,0.9,0.8,0.9c0.4,0,0.8-0.1,1.1-0.3L102.9,139.3z"/>
		</g>
		<g>
			<path class="st1" d="M110.2,136.3h-4.9c0.2,1.4,1,2,1.9,2c0.6,0,1.1-0.2,1.6-0.6l0.9,0.9c-0.6,0.6-1.4,1-2.5,1
				c-1.7,0-3.2-1.4-3.2-3.8c0-2.5,1.3-3.8,3.2-3.8c2.1,0,3.1,1.7,3.1,3.7C110.2,135.9,110.2,136.2,110.2,136.3z M107,133.3
				c-1,0-1.6,0.7-1.7,1.9h3.4C108.7,134.1,108.2,133.3,107,133.3z"/>
		</g>
	</g>
</g>
</svg>
