<svg id="Layer_1" data-name="Layer 1" xmlns="http://www.w3.org/2000/svg" viewBox="0 0 127.56 141.73"><defs><style>.cls-1{fill:#00567d;}.cls-2{fill:#415364;}.cls-3{fill:#a2a9ad;}</style></defs><title>imagotipo vertical-ADM</title><path class="cls-1" d="M63.78,100.21a47.61,47.61,0,1,1,47.6-47.61A47.66,47.66,0,0,1,63.78,100.21Zm0-87.73A40.12,40.12,0,1,0,103.9,52.6,40.17,40.17,0,0,0,63.78,12.48Z"/><path class="cls-1" d="M72.27,127l-1-2.81H66.67l-1,2.81H63l4.83-12.61h2.45L75,127Zm-2.67-7.5c-.25-.74-.5-1.49-.63-2-.13.47-.38,1.22-.63,2l-.81,2.29h2.88Z"/><path class="cls-1" d="M80.51,127H76.75V114.43h3.94c3.61,0,6.27,1.69,6.27,6.3C87,125.16,83.76,127,80.51,127Zm.09-10.16H79.27v7.71h1.24c2.65,0,3.86-1.55,3.86-3.86C84.37,118.16,83.27,116.88,80.6,116.88Z"/><path class="cls-1" d="M98.13,127v-4.63c0-.69,0-2.29,0-2.78-.18.47-.56,1.37-.88,2.09l-2.56,5.6-2.55-5.6c-.33-.72-.71-1.62-.89-2.09,0,.49,0,2.09,0,2.78V127H88.85V114.43h2.43l2.63,5.71c.33.7.7,1.65.87,2.1.16-.46.52-1.38.84-2.1l2.54-5.71h2.49V127Z"/><path class="cls-2" d="M30.22,117.76a6.21,6.21,0,0,0-2.9.69l.46,1a4.45,4.45,0,0,1,2.36-.66A1.66,1.66,0,0,1,32,120.71v1a4.65,4.65,0,0,0-2.16-.5c-1.72,0-3.31.83-3.31,2.77a2.54,2.54,0,0,0,2.77,2.77,3.57,3.57,0,0,0,2.7-1.23v1h1.24v-6C33.26,118.55,32.09,117.76,30.22,117.76Zm1.8,6.7a3,3,0,0,1-2.49,1.31,1.62,1.62,0,0,1-1.76-1.85c0-1.09.75-1.7,2-1.7a4.13,4.13,0,0,1,2.23.5Z"/><path class="cls-2" d="M37.56,121.56c-1.47-.66-1.91-1-1.91-1.68s.52-1.07,1.43-1.07a3.14,3.14,0,0,1,2.16.78l.69-.91a4.28,4.28,0,0,0-2.77-.92c-1.56,0-2.7.89-2.7,2.2s.73,1.92,2.45,2.66c1.54.66,2.05,1,2.05,1.76s-.56,1.34-1.75,1.34a3.58,3.58,0,0,1-2.36-1l-.72.91a4.83,4.83,0,0,0,3,1.1c1.5,0,3-.74,3-2.44C40.15,122.78,39.19,122.3,37.56,121.56Z"/><path class="cls-2" d="M45.5,117.76A3.44,3.44,0,0,0,42.9,119v-1H41.66v12L42.9,129v-3.35a3.08,3.08,0,0,0,2.44,1.15c1.81,0,3.26-1.58,3.26-4.65S47.23,117.76,45.5,117.76Zm-.26,7.94a2.84,2.84,0,0,1-2.34-1.3v-4.32a2.93,2.93,0,0,1,2.29-1.25c1.37,0,2.19,1.13,2.19,3.31S46.67,125.7,45.24,125.7Z"/><polygon class="cls-2" points="58.21 115.27 58.21 126.59 59.45 126.59 59.45 114.3 58.21 115.27"/><path class="cls-2" d="M53.17,117.76c-2.06,0-3.58,1.71-3.58,4.46,0,3.4,1.93,4.55,3.51,4.55a5.19,5.19,0,0,0,3.1-1l-.58-.89a3.88,3.88,0,0,1-2.39.82h-.09s-2.34.11-2.34-3.44c0-3.34,1.91-3.44,2.28-3.43h.07c1.52,0,2.24,1.17,2.34,2.85H52.36l-1.36,1h5.6a4.14,4.14,0,0,0,0-.67C56.64,119.54,55.42,117.76,53.17,117.76Z"/><path class="cls-3" d="M71.59,26.14a9.21,9.21,0,0,0-17,2.27A7.35,7.35,0,0,0,55.7,43h.55a1.36,1.36,0,1,0,0-2.71H55.7a4.64,4.64,0,0,1,0-9.27h0a1.47,1.47,0,0,0,1-.38,1.36,1.36,0,0,0,.43-.92A6.5,6.5,0,0,1,69.49,28a1.37,1.37,0,0,0,1.31.82H71a5.75,5.75,0,0,1,0,11.49h-.59a1.36,1.36,0,0,0,0,2.71H71a8.45,8.45,0,0,0,.62-16.88Z"/><path class="cls-1" d="M89,56.67a1.45,1.45,0,0,0-1.51,1.52V74.5a.92.92,0,0,1-1,1H41.31a.92.92,0,0,1-1-1V58.19a1.52,1.52,0,1,0-3,0V74.5a3.94,3.94,0,0,0,4,4H86.46a3.94,3.94,0,0,0,4-4V58.19A1.45,1.45,0,0,0,89,56.67Z"/><path class="cls-1" d="M87.42,39.11H81.64l-.06,0-.12,0a1.52,1.52,0,1,0,0,3h6a1.3,1.3,0,0,1,1.29,1.3v7.72a1,1,0,0,1-.8,1L69.53,56.28a.3.3,0,0,1-.37-.3h0a1.81,1.81,0,0,0-1.81-1.81H60.42A1.81,1.81,0,0,0,58.61,56a.3.3,0,0,1-.37.3L39.85,52.16a1,1,0,0,1-.79-1V43.44a1.3,1.3,0,0,1,1.29-1.3h5.78l.1,0,.19,0a1.52,1.52,0,1,0,0-3l-.19,0-.1,0H40.35A4.33,4.33,0,0,0,36,43.44v7.72a4,4,0,0,0,3.09,3.9l19.25,4.29a.3.3,0,0,1,.24.29V62.9a1.81,1.81,0,0,0,1.81,1.82h6.93a1.81,1.81,0,0,0,1.81-1.82V59.64a.3.3,0,0,1,.24-.29l19.26-4.3a4,4,0,0,0,3.08-3.89V43.44A4.32,4.32,0,0,0,87.42,39.11ZM66.13,61.39a.29.29,0,0,1-.3.3H61.94a.29.29,0,0,1-.3-.3V57.5a.3.3,0,0,1,.3-.31h3.89a.3.3,0,0,1,.3.31Z"/><path class="cls-1" d="M62.07,50.66a2.23,2.23,0,0,0,3.18,0l4.08-4.09a1.39,1.39,0,0,0-1-2.36h-1v-5a1.39,1.39,0,0,0-1.39-1.39H61.42A1.39,1.39,0,0,0,60,39.26v5H59a1.39,1.39,0,0,0-1,2.36Z"/></svg>