<?xml version="1.0" encoding="utf-8"?>
<!-- Generator: Adobe Illustrator 24.2.1, SVG Export Plug-In . SVG Version: 6.00 Build 0)  -->
<svg version="1.1" id="Layer_1" xmlns="http://www.w3.org/2000/svg" xmlns:xlink="http://www.w3.org/1999/xlink" x="0px" y="0px"
	 viewBox="0 0 127.6 141.7" style="enable-background:new 0 0 127.6 141.7;" xml:space="preserve">
<style type="text/css">
	.st0{fill:#75CEDE;}
	.st1{fill:#415364;}
	.st2{fill:#A2A9AD;stroke:#A2A9AD;stroke-width:0.6;stroke-miterlimit:10;}
	.st3{fill:#A2A9AD;}
</style>
<g>
	<g>
		<g>
			<g>
				<g>
					<g>
						<path class="st0" d="M63.8,100.2c-26.2,0-47.6-21.4-47.6-47.6S37.5,5,63.8,5c26.2,0,47.6,21.4,47.6,47.6S90,100.2,63.8,100.2z
							 M63.8,12.5c-22.1,0-40.1,18-40.1,40.1c0,22.1,18,40.1,40.1,40.1c22.1,0,40.1-18,40.1-40.1C103.9,30.5,85.9,12.5,63.8,12.5z"
							/>
					</g>
				</g>
			</g>
		</g>
	</g>
	<g>
		<g>
			<path class="st0" d="M44,127.3c-2.1,0-3.9-0.9-4.9-2.3l1.8-1.6c0.9,1,2,1.4,3.2,1.4c1.5,0,2.2-0.4,2.2-1.4c0-0.8-0.4-1.2-2.8-1.7
				c-2.3-0.5-3.9-1.3-3.9-3.8c0-2.3,2-3.7,4.5-3.7c2,0,3.4,0.7,4.6,2l-1.8,1.8c-0.8-0.8-1.7-1.3-2.9-1.3c-1.4,0-1.8,0.6-1.8,1.1
				c0,0.8,0.5,1,2.5,1.5c2,0.5,4.2,1.2,4.2,3.9C48.9,125.7,47.4,127.3,44,127.3z"/>
			<path class="st0" d="M50.8,127.1v-12.6h8.8v2.5h-6.2v2.2h3.6v2.4h-3.6v3h6.5v2.5H50.8z"/>
			<path class="st0" d="M69,127.1l-2.2-4.5h-2.5v4.5h-2.5v-12.6h5.9c2.4,0,4.3,1.3,4.3,4c0,1.9-0.8,3.1-2.4,3.7l2.4,4.9H69z
				 M67.5,117h-3.3v3.2h3.3c1.2,0,1.8-0.5,1.8-1.6C69.3,117.5,68.6,117,67.5,117z"/>
			<path class="st0" d="M79.7,127.1h-2.4l-4.5-12.6h2.8l2.4,7.3c0.2,0.7,0.5,1.6,0.6,2.1c0.1-0.5,0.3-1.3,0.6-2.1l2.3-7.3h2.8
				L79.7,127.1z"/>
			<path class="st0" d="M85.9,127.1v-12.6h2.5v12.6H85.9z"/>
			<path class="st0" d="M94.7,127.1H91v-12.6h3.9c3.6,0,6.3,1.7,6.3,6.3C101.2,125.3,98,127.1,94.7,127.1z M94.8,117h-1.3v7.7h1.2
				c2.6,0,3.9-1.5,3.9-3.9C98.6,118.3,97.5,117,94.8,117z"/>
			<path class="st0" d="M107.7,127.3c-3.4,0-5.5-2.7-5.5-6.5s2-6.5,5.5-6.5c3.4,0,5.5,2.7,5.5,6.5S111.1,127.3,107.7,127.3z
				 M107.7,116.9c-2,0-2.9,1.7-2.9,4s0.8,4,2.9,4c2,0,2.9-1.7,2.9-4S109.7,116.9,107.7,116.9z"/>
			<path class="st0" d="M122.2,127.1l-2.3-4.5h-2.5v4.5h-2.5v-12.6h5.9c2.4,0,4.3,1.3,4.3,4c0,1.9-0.8,3.1-2.4,3.7l2.4,4.9H122.2z
				 M120.7,117h-3.3v3.2h3.3c1.2,0,1.8-0.5,1.8-1.6C122.5,117.5,121.8,117,120.7,117z"/>
			<path class="st0" d="M105.8,136.2h-0.8l-1.5-4.3h0.9l0.8,2.3c0.1,0.4,0.3,0.8,0.3,1.1c0-0.2,0.2-0.6,0.3-1.1l0.7-2.3h0.9
				L105.8,136.2z"/>
			<path class="st0" d="M108.4,131.4c-0.3,0-0.5-0.2-0.5-0.5c0-0.3,0.2-0.5,0.5-0.5c0.3,0,0.5,0.2,0.5,0.5
				C108.9,131.1,108.7,131.4,108.4,131.4z M107.9,136.2v-4.3h0.8v4.3H107.9z"/>
			<path class="st0" d="M112.1,132.8c-0.2-0.1-0.4-0.2-0.6-0.2c-0.5,0-0.8,0.4-0.8,1.1v2.5h-0.8v-4.3h0.8v0.4c0.2-0.3,0.6-0.5,1-0.5
				c0.3,0,0.6,0.1,0.7,0.2L112.1,132.8z"/>
			<path class="st0" d="M115,136.1c-0.2,0.1-0.5,0.2-0.8,0.2c-0.6,0-1-0.4-1-1.1v-2.5h-0.6v-0.8h0.6v-1.2l0.8-0.4v1.7h1.1v0.8H114
				v2.3c0,0.4,0.1,0.5,0.4,0.5c0.2,0,0.5-0.1,0.6-0.2L115,136.1z"/>
			<path class="st0" d="M118.5,136.2v-0.4c-0.2,0.3-0.6,0.5-1.1,0.5c-1,0-1.5-0.7-1.5-1.9v-2.5h0.8v2.4c0,0.9,0.3,1.2,0.9,1.2
				c0.6,0,0.9-0.4,0.9-1.1v-2.5h0.8v4.3H118.5z"/>
			<path class="st0" d="M122.8,136.2v-0.4c-0.3,0.3-0.7,0.5-1.2,0.5c-0.7,0-1.5-0.4-1.5-1.5c0-1,0.7-1.4,1.7-1.4
				c0.4,0,0.7,0.1,1,0.2v-0.3c0-0.5-0.3-0.7-0.8-0.7c-0.4,0-0.8,0.1-1.1,0.3l-0.3-0.6c0.4-0.3,0.9-0.4,1.5-0.4c1,0,1.6,0.5,1.6,1.4
				v3H122.8z M122.8,134.4c-0.2-0.1-0.5-0.2-1-0.2c-0.5,0-0.9,0.2-0.9,0.6c0,0.4,0.3,0.7,0.8,0.7c0.5,0,0.8-0.3,1-0.5V134.4z"/>
			<path class="st0" d="M124.6,136.2v-5.5l0.8-0.4v6H124.6z"/>
		</g>
		<g>
			<g>
				<g>
					<path class="st1" d="M5.4,117.8c-1.1,0-2.1,0.3-2.9,0.7l0.5,1c0.7-0.4,1.4-0.7,2.3-0.7c1.3,0,1.9,0.6,1.9,1.9v1
						c-0.5-0.3-1.3-0.5-2.1-0.5c-1.7,0-3.3,0.8-3.3,2.8c0,2.1,1.4,2.8,2.8,2.8c1.2,0,2.1-0.6,2.7-1.2v1h1.2v-6
						C8.4,118.6,7.2,117.8,5.4,117.8z M7.1,124.5c-0.5,0.7-1.4,1.3-2.5,1.3c-1,0-1.8-0.6-1.8-1.8c0-1.1,0.8-1.7,2-1.7
						c1.1,0,1.7,0.2,2.2,0.5V124.5z"/>
				</g>
				<g>
					<path class="st1" d="M12.7,121.6c-1.5-0.7-1.9-1-1.9-1.7c0-0.6,0.5-1.1,1.4-1.1c0.9,0,1.5,0.2,2.1,0.8l0.7-0.9
						c-0.7-0.5-1.6-0.9-2.8-0.9c-1.6,0-2.7,0.9-2.7,2.2c0,1.4,0.7,1.9,2.4,2.6c1.5,0.7,2,1,2,1.8c0,0.8-0.6,1.3-1.7,1.3
						c-0.9,0-1.7-0.3-2.3-1l-0.7,0.9c0.8,0.7,1.9,1.1,3,1.1c1.5,0,3-0.7,3-2.4C15.2,122.8,14.3,122.3,12.7,121.6z"/>
				</g>
				<g>
					<path class="st1" d="M20.6,117.8c-1.2,0-2,0.6-2.6,1.2V118h-1.2v11.9L18,129v-3.3c0.6,0.7,1.3,1.1,2.4,1.1
						c1.8,0,3.2-1.6,3.2-4.6C23.7,119.1,22.3,117.8,20.6,117.8z M20.3,125.7c-1,0-1.9-0.6-2.3-1.3v-4.3c0.6-0.8,1.4-1.2,2.3-1.2
						c1.4,0,2.2,1.1,2.2,3.3C22.4,124.5,21.7,125.7,20.3,125.7z"/>
				</g>
				<g>
					<polygon class="st1" points="33.2,115.3 33.2,126.6 34.5,126.6 34.5,114.4 					"/>
				</g>
				<g>
					<path class="st1" d="M28.2,117.8c-2.1,0-3.6,1.7-3.6,4.5c0,3.4,1.9,4.5,3.5,4.5c1.3,0,2.1-0.3,3.1-1l-0.6-0.9
						c-0.8,0.5-1.4,0.8-2.4,0.8c0,0-0.1,0-0.1,0l0,0c0,0-2.3,0.1-2.3-3.4c0-3.3,1.9-3.4,2.3-3.4c0,0,0,0,0.1,0
						c1.5,0,2.2,1.2,2.3,2.8h-3.1l-1.4,1h5.6c0-0.2,0-0.4,0-0.7C31.7,119.6,30.5,117.8,28.2,117.8z"/>
				</g>
			</g>
		</g>
	</g>
	<g>
		<g>
			<path class="st2" d="M58,48h-3.6c-0.4,0-0.8-0.4-0.8-0.8c0-0.4,0.4-0.8,0.8-0.8H58c3.3,0,5.9-2.6,5.9-5.9c0-3.3-2.6-5.9-5.9-5.9
				c-0.1,0-0.1,0-0.2,0c-0.3,0-0.6-0.2-0.8-0.5c-1-2.4-3.4-4-6.1-4c-3.3,0-6.1,2.5-6.6,5.8c0,0.3-0.1,0.5-0.3,0.6
				c-0.2,0.1-0.4,0.2-0.6,0.2c-2.7,0-4.8,2.2-4.8,4.9c0,2.7,2.2,4.9,4.9,4.9h3.5c0.4,0,0.8,0.4,0.8,0.8c0,0.4-0.4,0.8-0.8,0.8h-3.5
				c-3.5,0-6.4-2.9-6.4-6.4c0-3.3,2.5-6.1,5.8-6.4c0.8-3.8,4.1-6.6,8-6.6c3.1,0,5.9,1.7,7.3,4.5c4,0.1,7.2,3.4,7.2,7.5
				C65.5,44.7,62.2,48,58,48z"/>
		</g>
		<g>
			<g>
				<g>
					<path class="st3" d="M87.3,53.1h-18c-1.7,0-3,1.3-3,3v12c0,1.7,1.3,3,3,3h5v2h-3v2h14v-2h-3v-2h5c1.7,0,3-1.3,3-3v-12
						C90.3,54.5,89,53.1,87.3,53.1 M80.3,73.1h-4v-2h4V73.1z M88.3,68.1c0,0.6-0.4,1-1,1h-18c-0.6,0-1-0.4-1-1v-12c0-0.6,0.4-1,1-1
						h18c0.6,0,1,0.4,1,1V68.1z"/>
					<rect x="64.9" y="33.5" class="st3" width="2.1" height="2"/>
					<rect x="69.1" y="33.5" class="st3" width="2.1" height="2"/>
					<rect x="73.3" y="33.5" class="st3" width="2.1" height="2"/>
					<rect x="53.7" y="64.1" class="st3" width="2.1" height="2"/>
					<rect x="57.9" y="64.1" class="st3" width="2.1" height="2"/>
					<rect x="62.1" y="64.1" class="st3" width="2.1" height="2"/>
				</g>
			</g>
		</g>
		<path class="st0" d="M82.8,44.3c-0.4-0.4-1.1-0.4-1.5,0l-1.8,1.8V31.1c0-0.6-0.5-1.1-1.1-1.1c-0.6,0-1.1,0.5-1.1,1.1v15l-1.8-1.8
			c-0.4-0.4-1.1-0.4-1.5,0c-0.4,0.4-0.4,1.1,0,1.5l4.5,4.5l0.8-0.8c0,0,0,0,0,0l3.7-3.7C83.2,45.4,83.2,44.7,82.8,44.3z"/>
		<g>
			<path class="st0" d="M55.3,53.3l-3.7-3.7c0,0,0,0,0,0l-0.8-0.8L50,49.6c0,0,0,0,0,0l-3.7,3.7c-0.4,0.4-0.4,1.1,0,1.5
				c0.4,0.4,1.1,0.4,1.5,0l1.8-1.8v15.9c0,0.6,0.5,1.1,1.1,1.1c0.6,0,1.1-0.5,1.1-1.1V53l1.8,1.8c0.2,0.2,0.5,0.3,0.8,0.3
				c0.3,0,0.6-0.1,0.8-0.3C55.7,54.4,55.7,53.8,55.3,53.3z"/>
		</g>
	</g>
</g>
</svg>
